<?xml version="1.0" encoding="utf-8"?>
<!-- Generator: Adobe Illustrator 22.0.0, SVG Export Plug-In . SVG Version: 6.00 Build 0)  -->
<svg version="1.1" id="Слой_1" xmlns="http://www.w3.org/2000/svg" xmlns:xlink="http://www.w3.org/1999/xlink" x="0px" y="0px"
	 viewBox="0 0 100 100" style="enable-background:new 0 0 100 100;" xml:space="preserve">
<style type="text/css">
	.st0{fill:none;stroke:url(#SVGID_1_);stroke-width:2;stroke-miterlimit:10;}
	.st1{fill:url(#SVGID_2_);}
	.st2{fill:url(#SVGID_3_);}
	.st3{fill:url(#SVGID_4_);}
	.st4{fill:url(#SVGID_5_);}
	.st5{fill:url(#SVGID_6_);}
	.st6{fill:url(#SVGID_7_);}
	.st7{fill:url(#SVGID_8_);}
	.st8{fill:none;stroke:#FCF6D2;stroke-linecap:round;stroke-linejoin:round;stroke-miterlimit:10;}
	.st9{clip-path:url(#SVGID_10_);fill:#DFF5FB;}
	.st10{clip-path:url(#SVGID_10_);fill:#DEF4FB;}
	.st11{clip-path:url(#SVGID_10_);fill:#DDF4FA;}
	.st12{clip-path:url(#SVGID_10_);fill:#DCF3FA;}
	.st13{clip-path:url(#SVGID_10_);fill:#DBF2F9;}
	.st14{clip-path:url(#SVGID_10_);fill:#DAF2F9;}
	.st15{clip-path:url(#SVGID_10_);fill:#D8F1F8;}
	.st16{clip-path:url(#SVGID_10_);fill:#D7F1F8;}
	.st17{clip-path:url(#SVGID_10_);fill:#D6F0F7;}
	.st18{clip-path:url(#SVGID_10_);fill:#D5EFF7;}
	.st19{clip-path:url(#SVGID_10_);fill:#D4EFF6;}
	.st20{clip-path:url(#SVGID_10_);fill:#D3EEF6;}
	.st21{clip-path:url(#SVGID_10_);fill:#D2EDF6;}
	.st22{clip-path:url(#SVGID_10_);fill:#D1EDF5;}
	.st23{clip-path:url(#SVGID_10_);fill:#D0ECF5;}
	.st24{clip-path:url(#SVGID_10_);fill:#CFECF4;}
	.st25{clip-path:url(#SVGID_10_);fill:#CEEBF4;}
	.st26{clip-path:url(#SVGID_10_);fill:#CDEAF3;}
	.st27{clip-path:url(#SVGID_10_);fill:#CCEAF3;}
	.st28{clip-path:url(#SVGID_10_);fill:#CBE9F2;}
	.st29{clip-path:url(#SVGID_10_);fill:#CAE8F2;}
	.st30{clip-path:url(#SVGID_10_);fill:#C9E8F2;}
	.st31{clip-path:url(#SVGID_10_);fill:#C8E7F1;}
	.st32{clip-path:url(#SVGID_10_);fill:#C7E7F1;}
	.st33{clip-path:url(#SVGID_10_);fill:#C6E6F0;}
	.st34{clip-path:url(#SVGID_10_);fill:#C5E5F0;}
	.st35{clip-path:url(#SVGID_10_);fill:#C4E5EF;}
	.st36{clip-path:url(#SVGID_10_);fill:#C3E4EF;}
	.st37{clip-path:url(#SVGID_10_);fill:#C2E4EE;}
	.st38{clip-path:url(#SVGID_10_);fill:#C0E3EE;}
	.st39{clip-path:url(#SVGID_10_);fill:#BFE2EE;}
	.st40{clip-path:url(#SVGID_10_);fill:#BEE2ED;}
	.st41{clip-path:url(#SVGID_10_);fill:#BDE1ED;}
	.st42{clip-path:url(#SVGID_10_);fill:#BCE1EC;}
	.st43{clip-path:url(#SVGID_10_);fill:#BBE0EC;}
	.st44{clip-path:url(#SVGID_10_);fill:#BADFEB;}
	.st45{clip-path:url(#SVGID_10_);fill:#B9DFEB;}
	.st46{clip-path:url(#SVGID_10_);fill:#B8DEEA;}
	.st47{clip-path:url(#SVGID_10_);fill:#B7DDEA;}
	.st48{clip-path:url(#SVGID_10_);fill:#B6DDEA;}
	.st49{clip-path:url(#SVGID_10_);fill:#B5DCE9;}
	.st50{clip-path:url(#SVGID_10_);fill:#B4DCE9;}
	.st51{clip-path:url(#SVGID_10_);fill:#B3DBE8;}
	.st52{clip-path:url(#SVGID_10_);fill:#B2DAE8;}
	.st53{clip-path:url(#SVGID_10_);fill:#B1DAE7;}
	.st54{clip-path:url(#SVGID_10_);fill:#B0D9E7;}
	.st55{clip-path:url(#SVGID_10_);fill:#AFD9E6;}
	.st56{clip-path:url(#SVGID_10_);fill:#AED8E6;}
	.st57{clip-path:url(#SVGID_12_);fill:#D3EEF6;}
	.st58{clip-path:url(#SVGID_12_);fill:#D2EDF6;}
	.st59{clip-path:url(#SVGID_12_);fill:#D1EDF5;}
	.st60{clip-path:url(#SVGID_12_);fill:#D0ECF5;}
	.st61{clip-path:url(#SVGID_12_);fill:#CFECF4;}
	.st62{clip-path:url(#SVGID_12_);fill:#CEEBF4;}
	.st63{clip-path:url(#SVGID_12_);fill:#CDEAF3;}
	.st64{clip-path:url(#SVGID_12_);fill:#CCEAF3;}
	.st65{clip-path:url(#SVGID_12_);fill:#CBE9F2;}
	.st66{clip-path:url(#SVGID_12_);fill:#CAE8F2;}
	.st67{clip-path:url(#SVGID_12_);fill:#C9E8F2;}
	.st68{clip-path:url(#SVGID_12_);fill:#C8E7F1;}
	.st69{clip-path:url(#SVGID_12_);fill:#C7E7F1;}
	.st70{clip-path:url(#SVGID_12_);fill:#C6E6F0;}
	.st71{clip-path:url(#SVGID_12_);fill:#DFF5FB;}
	.st72{clip-path:url(#SVGID_12_);fill:#DEF4FB;}
	.st73{clip-path:url(#SVGID_12_);fill:#DDF4FA;}
	.st74{clip-path:url(#SVGID_12_);fill:#DCF3FA;}
	.st75{clip-path:url(#SVGID_12_);fill:#DBF2F9;}
	.st76{clip-path:url(#SVGID_12_);fill:#DAF2F9;}
	.st77{clip-path:url(#SVGID_12_);fill:#D8F1F8;}
	.st78{clip-path:url(#SVGID_12_);fill:#D7F1F8;}
	.st79{clip-path:url(#SVGID_12_);fill:#D6F0F7;}
	.st80{clip-path:url(#SVGID_12_);fill:#D5EFF7;}
	.st81{clip-path:url(#SVGID_12_);fill:#D4EFF6;}
	.st82{clip-path:url(#SVGID_12_);fill:#C5E5F0;}
	.st83{clip-path:url(#SVGID_12_);fill:#C4E5EF;}
	.st84{clip-path:url(#SVGID_12_);fill:#C3E4EF;}
	.st85{clip-path:url(#SVGID_12_);fill:#C2E4EE;}
	.st86{clip-path:url(#SVGID_12_);fill:#C0E3EE;}
	.st87{clip-path:url(#SVGID_12_);fill:#BFE2EE;}
	.st88{clip-path:url(#SVGID_12_);fill:#BEE2ED;}
	.st89{clip-path:url(#SVGID_12_);fill:#BDE1ED;}
	.st90{clip-path:url(#SVGID_12_);fill:#BCE1EC;}
	.st91{clip-path:url(#SVGID_12_);fill:#BBE0EC;}
	.st92{clip-path:url(#SVGID_12_);fill:#BADFEB;}
	.st93{clip-path:url(#SVGID_12_);fill:#B9DFEB;}
	.st94{clip-path:url(#SVGID_12_);fill:#B8DEEA;}
	.st95{clip-path:url(#SVGID_12_);fill:#B7DDEA;}
	.st96{clip-path:url(#SVGID_12_);fill:#B6DDEA;}
	.st97{clip-path:url(#SVGID_12_);fill:#B5DCE9;}
	.st98{clip-path:url(#SVGID_12_);fill:#B4DCE9;}
	.st99{clip-path:url(#SVGID_12_);fill:#B3DBE8;}
	.st100{clip-path:url(#SVGID_12_);fill:#B2DAE8;}
	.st101{clip-path:url(#SVGID_12_);fill:#B1DAE7;}
	.st102{clip-path:url(#SVGID_12_);fill:#B0D9E7;}
	.st103{clip-path:url(#SVGID_12_);fill:#AFD9E6;}
	.st104{clip-path:url(#SVGID_12_);fill:#AED8E6;}
	.st105{clip-path:url(#SVGID_14_);fill:#DFF5FB;}
	.st106{clip-path:url(#SVGID_14_);fill:#DEF4FB;}
	.st107{clip-path:url(#SVGID_14_);fill:#DDF4FA;}
	.st108{clip-path:url(#SVGID_14_);fill:#DCF3FA;}
	.st109{clip-path:url(#SVGID_14_);fill:#DBF2F9;}
	.st110{clip-path:url(#SVGID_14_);fill:#DAF2F9;}
	.st111{clip-path:url(#SVGID_14_);fill:#D8F1F8;}
	.st112{clip-path:url(#SVGID_14_);fill:#D7F1F8;}
	.st113{clip-path:url(#SVGID_14_);fill:#D6F0F7;}
	.st114{clip-path:url(#SVGID_14_);fill:#D5EFF7;}
	.st115{clip-path:url(#SVGID_14_);fill:#D4EFF6;}
	.st116{clip-path:url(#SVGID_14_);fill:#D3EEF6;}
	.st117{clip-path:url(#SVGID_14_);fill:#D2EDF6;}
	.st118{clip-path:url(#SVGID_14_);fill:#D1EDF5;}
	.st119{clip-path:url(#SVGID_14_);fill:#D0ECF5;}
	.st120{clip-path:url(#SVGID_14_);fill:#CFECF4;}
	.st121{clip-path:url(#SVGID_14_);fill:#CEEBF4;}
	.st122{clip-path:url(#SVGID_14_);fill:#CDEAF3;}
	.st123{clip-path:url(#SVGID_14_);fill:#CCEAF3;}
	.st124{clip-path:url(#SVGID_14_);fill:#CBE9F2;}
	.st125{clip-path:url(#SVGID_14_);fill:#CAE8F2;}
	.st126{clip-path:url(#SVGID_14_);fill:#C9E8F2;}
	.st127{clip-path:url(#SVGID_14_);fill:#C8E7F1;}
	.st128{clip-path:url(#SVGID_14_);fill:#C7E7F1;}
	.st129{clip-path:url(#SVGID_14_);fill:#C6E6F0;}
	.st130{clip-path:url(#SVGID_14_);fill:#C5E5F0;}
	.st131{clip-path:url(#SVGID_14_);fill:#C4E5EF;}
	.st132{clip-path:url(#SVGID_14_);fill:#C3E4EF;}
	.st133{clip-path:url(#SVGID_14_);fill:#C2E4EE;}
	.st134{clip-path:url(#SVGID_14_);fill:#C0E3EE;}
	.st135{clip-path:url(#SVGID_14_);fill:#BFE2EE;}
	.st136{clip-path:url(#SVGID_14_);fill:#BEE2ED;}
	.st137{clip-path:url(#SVGID_14_);fill:#BDE1ED;}
	.st138{clip-path:url(#SVGID_14_);fill:#BCE1EC;}
	.st139{clip-path:url(#SVGID_14_);fill:#BBE0EC;}
	.st140{clip-path:url(#SVGID_14_);fill:#BADFEB;}
	.st141{clip-path:url(#SVGID_14_);fill:#B9DFEB;}
	.st142{clip-path:url(#SVGID_14_);fill:#B8DEEA;}
	.st143{clip-path:url(#SVGID_14_);fill:#B7DDEA;}
	.st144{clip-path:url(#SVGID_14_);fill:#B6DDEA;}
	.st145{clip-path:url(#SVGID_14_);fill:#B5DCE9;}
	.st146{clip-path:url(#SVGID_14_);fill:#B4DCE9;}
	.st147{clip-path:url(#SVGID_14_);fill:#B3DBE8;}
	.st148{clip-path:url(#SVGID_14_);fill:#B2DAE8;}
	.st149{clip-path:url(#SVGID_14_);fill:#B1DAE7;}
	.st150{clip-path:url(#SVGID_14_);fill:#B0D9E7;}
	.st151{clip-path:url(#SVGID_14_);fill:#AFD9E6;}
	.st152{clip-path:url(#SVGID_14_);fill:#AED8E6;}
	.st153{clip-path:url(#SVGID_16_);fill:#DFF5FB;}
	.st154{clip-path:url(#SVGID_16_);fill:#DEF4FB;}
	.st155{clip-path:url(#SVGID_16_);fill:#DDF4FA;}
	.st156{clip-path:url(#SVGID_16_);fill:#DCF3FA;}
	.st157{clip-path:url(#SVGID_16_);fill:#DBF2F9;}
	.st158{clip-path:url(#SVGID_16_);fill:#DAF2F9;}
	.st159{clip-path:url(#SVGID_16_);fill:#D8F1F8;}
	.st160{clip-path:url(#SVGID_16_);fill:#D7F1F8;}
	.st161{clip-path:url(#SVGID_16_);fill:#D6F0F7;}
	.st162{clip-path:url(#SVGID_16_);fill:#D5EFF7;}
	.st163{clip-path:url(#SVGID_16_);fill:#D4EFF6;}
	.st164{clip-path:url(#SVGID_16_);fill:#D3EEF6;}
	.st165{clip-path:url(#SVGID_16_);fill:#D2EDF6;}
	.st166{clip-path:url(#SVGID_16_);fill:#D1EDF5;}
	.st167{clip-path:url(#SVGID_16_);fill:#D0ECF5;}
	.st168{clip-path:url(#SVGID_16_);fill:#CFECF4;}
	.st169{clip-path:url(#SVGID_16_);fill:#CEEBF4;}
	.st170{clip-path:url(#SVGID_16_);fill:#CDEAF3;}
	.st171{clip-path:url(#SVGID_16_);fill:#CCEAF3;}
	.st172{clip-path:url(#SVGID_16_);fill:#CBE9F2;}
	.st173{clip-path:url(#SVGID_16_);fill:#CAE8F2;}
	.st174{clip-path:url(#SVGID_16_);fill:#C9E8F2;}
	.st175{clip-path:url(#SVGID_16_);fill:#C8E7F1;}
	.st176{clip-path:url(#SVGID_16_);fill:#C7E7F1;}
	.st177{clip-path:url(#SVGID_16_);fill:#C6E6F0;}
	.st178{clip-path:url(#SVGID_16_);fill:#C5E5F0;}
	.st179{clip-path:url(#SVGID_16_);fill:#C4E5EF;}
	.st180{clip-path:url(#SVGID_16_);fill:#C3E4EF;}
	.st181{clip-path:url(#SVGID_16_);fill:#C2E4EE;}
	.st182{clip-path:url(#SVGID_16_);fill:#C0E3EE;}
	.st183{clip-path:url(#SVGID_16_);fill:#BFE2EE;}
	.st184{clip-path:url(#SVGID_16_);fill:#BEE2ED;}
	.st185{clip-path:url(#SVGID_16_);fill:#BDE1ED;}
	.st186{clip-path:url(#SVGID_16_);fill:#BCE1EC;}
	.st187{clip-path:url(#SVGID_16_);fill:#BBE0EC;}
	.st188{clip-path:url(#SVGID_16_);fill:#BADFEB;}
	.st189{clip-path:url(#SVGID_16_);fill:#B9DFEB;}
	.st190{clip-path:url(#SVGID_16_);fill:#B8DEEA;}
	.st191{clip-path:url(#SVGID_16_);fill:#B7DDEA;}
	.st192{clip-path:url(#SVGID_16_);fill:#B6DDEA;}
	.st193{clip-path:url(#SVGID_16_);fill:#B5DCE9;}
	.st194{clip-path:url(#SVGID_16_);fill:#B4DCE9;}
	.st195{clip-path:url(#SVGID_16_);fill:#B3DBE8;}
	.st196{clip-path:url(#SVGID_16_);fill:#B2DAE8;}
	.st197{clip-path:url(#SVGID_16_);fill:#B1DAE7;}
	.st198{clip-path:url(#SVGID_16_);fill:#B0D9E7;}
	.st199{clip-path:url(#SVGID_16_);fill:#AFD9E6;}
	.st200{clip-path:url(#SVGID_16_);fill:#AED8E6;}
	.st201{fill:#FFFFFF;}
</style>
<g>
	<g>
		
			<linearGradient id="SVGID_1_" gradientUnits="userSpaceOnUse" x1="-77.0231" y1="132.6476" x2="-19.8535" y2="132.6476" gradientTransform="matrix(0.9694 -0.2455 0.2455 0.9694 58.4727 -106.6413)">
			<stop  offset="0" style="stop-color:#1570A3"/>
			<stop  offset="1" style="stop-color:#B9D7E4"/>
		</linearGradient>
		<polygon class="st0" points="41.4,22.8 21.8,51.5 72.1,38.8 		"/>
		
			<linearGradient id="SVGID_2_" gradientUnits="userSpaceOnUse" x1="-85.3569" y1="160.2953" x2="-11.237" y2="160.2953" gradientTransform="matrix(0.9694 -0.2455 0.2455 0.9694 58.4727 -106.6413)">
			<stop  offset="0" style="stop-color:#1570A3"/>
			<stop  offset="1" style="stop-color:#B9D7E4"/>
		</linearGradient>
		<path class="st1" d="M84.8,66.5L24,81.9c-3,0.8-6.1-1.1-6.9-4.1L13,61.7c-0.8-3,1.1-6.1,4.1-6.9L78,39.3c3-0.8,6.1,1.1,6.9,4.1
			L89,59.6C89.7,62.6,87.9,65.7,84.8,66.5z"/>
		
			<linearGradient id="SVGID_3_" gradientUnits="userSpaceOnUse" x1="-57.3524" y1="161.2964" x2="-93.9416" y2="187.1062" gradientTransform="matrix(0.9694 -0.2455 0.2455 0.9694 58.4727 -106.6413)">
			<stop  offset="0" style="stop-color:#DFF5FB"/>
			<stop  offset="0.2502" style="stop-color:#D3EEF6"/>
			<stop  offset="1" style="stop-color:#AED8E6"/>
		</linearGradient>
		<path class="st2" d="M83.5,61.2L22.7,76.6c-3,0.8-6.1-1.1-6.9-4.1l-4.1-16.1c-0.8-3,1.1-6.1,4.1-6.9l60.8-15.4
			c3-0.8,6.1,1.1,6.9,4.1l4.1,16.1C88.4,57.4,86.6,60.5,83.5,61.2z"/>
		
			<linearGradient id="SVGID_4_" gradientUnits="userSpaceOnUse" x1="-85.3569" y1="157.602" x2="-11.237" y2="157.602" gradientTransform="matrix(0.9694 -0.2455 0.2455 0.9694 58.4727 -106.6413)">
			<stop  offset="0" style="stop-color:#DFF5FB"/>
			<stop  offset="0.2502" style="stop-color:#D3EEF6"/>
			<stop  offset="1" style="stop-color:#AED8E6"/>
		</linearGradient>
		<path class="st3" d="M84.2,63.8L23.4,79.3c-3,0.8-6.1-1.1-6.9-4.1L12.4,59c-0.8-3,1.1-6.1,4.1-6.9l60.8-15.4
			c3-0.8,6.1,1.1,6.9,4.1l4.1,16.1C89.1,60,87.2,63.1,84.2,63.8z"/>
		
			<linearGradient id="SVGID_5_" gradientUnits="userSpaceOnUse" x1="-53.4034" y1="121.3159" x2="-43.3063" y2="121.3159" gradientTransform="matrix(0.9694 -0.2455 0.2455 0.9694 58.4727 -106.6413)">
			<stop  offset="0" style="stop-color:#F28B6C"/>
			<stop  offset="1" style="stop-color:#C7586B"/>
		</linearGradient>
		<circle class="st4" cx="41.4" cy="22.8" r="5"/>
		
			<linearGradient id="SVGID_6_" gradientUnits="userSpaceOnUse" x1="-42.1173" y1="115.4306" x2="-46.7788" y2="120.5582" gradientTransform="matrix(0.9694 -0.2455 0.2455 0.9694 58.4727 -106.6413)">
			<stop  offset="0" style="stop-color:#F28B6C"/>
			<stop  offset="1" style="stop-color:#C7586B"/>
		</linearGradient>
		<path class="st5" d="M42.6,27.7c2.7-0.7,4.3-3.4,3.7-6.1l-9.8,2.5C37.2,26.8,39.9,28.4,42.6,27.7z"/>
		
			<linearGradient id="SVGID_7_" gradientUnits="userSpaceOnUse" x1="-28.5076" y1="128.7955" x2="-30.3973" y2="130.1285" gradientTransform="matrix(0.9924 -0.1233 0.1233 0.9924 33.7781 -79.4268)">
			<stop  offset="0" style="stop-color:#F28B6C"/>
			<stop  offset="1" style="stop-color:#C7586B"/>
		</linearGradient>
		<circle class="st6" cx="21.8" cy="51.5" r="1.9"/>
		
			<linearGradient id="SVGID_8_" gradientUnits="userSpaceOnUse" x1="22.9895" y1="122.3584" x2="21.0998" y2="123.6914" gradientTransform="matrix(0.9924 -0.1233 0.1233 0.9924 33.7781 -79.4268)">
			<stop  offset="0" style="stop-color:#F28B6C"/>
			<stop  offset="1" style="stop-color:#C7586B"/>
		</linearGradient>
		<circle class="st7" cx="72.1" cy="38.8" r="1.9"/>
		<path class="st8" d="M40.7,19c0,0-2.9,0.4-3.2,4"/>
	</g>
</g>
<g>
	<g>
		<g>
			<defs>
				<path id="SVGID_9_" d="M43.1,67.2l-9.8,2.6l-0.7-2.5c2.3-2.7,3.7-4.5,4.3-5.4c0.6-0.9,0.8-1.7,0.6-2.3c-0.1-0.4-0.4-0.7-0.8-0.8
					c-0.4-0.1-0.8-0.2-1.3,0c-1.3,0.3-2.2,1.1-3,2.2l-2.3-1.7c0.5-0.9,1.1-1.6,1.9-2.2s1.7-1,2.6-1.2c1.5-0.4,2.8-0.3,4,0.2
					c1.1,0.5,1.9,1.4,2.2,2.7c0.2,0.9,0.1,1.9-0.3,3c-0.5,1.1-1.4,2.4-2.7,3.9l4.6-1.2L43.1,67.2z"/>
			</defs>
			<clipPath id="SVGID_10_">
				<use xlink:href="#SVGID_9_"  style="overflow:visible;"/>
			</clipPath>
			<path class="st9" d="M30.1,55.5v14.3V55.5z"/>
			<rect x="30.1" y="55.5" class="st9" width="0.3" height="14.3"/>
			<rect x="30.4" y="55.5" class="st10" width="0.3" height="14.3"/>
			<rect x="30.7" y="55.5" class="st11" width="0.3" height="14.3"/>
			<rect x="30.9" y="55.5" class="st12" width="0.3" height="14.3"/>
			<rect x="31.2" y="55.5" class="st13" width="0.3" height="14.3"/>
			<rect x="31.5" y="55.5" class="st14" width="0.3" height="14.3"/>
			<rect x="31.7" y="55.5" class="st15" width="0.3" height="14.3"/>
			<rect x="32" y="55.5" class="st16" width="0.3" height="14.3"/>
			<rect x="32.3" y="55.5" class="st17" width="0.3" height="14.3"/>
			<rect x="32.5" y="55.5" class="st18" width="0.3" height="14.3"/>
			<rect x="32.8" y="55.5" class="st19" width="0.3" height="14.3"/>
			<rect x="33.1" y="55.5" class="st20" width="0.3" height="14.3"/>
			<rect x="33.4" y="55.5" class="st20" width="0.3" height="14.3"/>
			<rect x="33.6" y="55.5" class="st21" width="0.3" height="14.3"/>
			<rect x="33.9" y="55.5" class="st22" width="0.3" height="14.3"/>
			<rect x="34.2" y="55.5" class="st23" width="0.3" height="14.3"/>
			<rect x="34.4" y="55.5" class="st24" width="0.3" height="14.3"/>
			<rect x="34.7" y="55.5" class="st25" width="0.3" height="14.3"/>
			<rect x="34.9" y="55.5" class="st26" width="0.3" height="14.3"/>
			<rect x="35.2" y="55.5" class="st27" width="0.3" height="14.3"/>
			<rect x="35.5" y="55.5" class="st28" width="0.3" height="14.3"/>
			<rect x="35.7" y="55.5" class="st29" width="0.3" height="14.3"/>
			<rect x="36" y="55.5" class="st30" width="0.3" height="14.3"/>
			<rect x="36.3" y="55.5" class="st31" width="0.3" height="14.3"/>
			<rect x="36.5" y="55.5" class="st32" width="0.3" height="14.3"/>
			<rect x="36.8" y="55.5" class="st33" width="0.3" height="14.3"/>
			<rect x="37.1" y="55.5" class="st34" width="0.3" height="14.3"/>
			<rect x="37.3" y="55.5" class="st35" width="0.3" height="14.3"/>
			<rect x="37.6" y="55.5" class="st36" width="0.3" height="14.3"/>
			<rect x="37.8" y="55.5" class="st37" width="0.3" height="14.3"/>
			<rect x="38.1" y="55.5" class="st38" width="0.3" height="14.3"/>
			<rect x="38.4" y="55.5" class="st39" width="0.3" height="14.3"/>
			<rect x="38.6" y="55.5" class="st40" width="0.3" height="14.3"/>
			<rect x="38.9" y="55.5" class="st41" width="0.3" height="14.3"/>
			<rect x="39.2" y="55.5" class="st42" width="0.3" height="14.3"/>
			<rect x="39.4" y="55.5" class="st43" width="0.3" height="14.3"/>
			<rect x="39.7" y="55.5" class="st44" width="0.3" height="14.3"/>
			<rect x="40" y="55.5" class="st45" width="0.3" height="14.3"/>
			<rect x="40.2" y="55.5" class="st46" width="0.3" height="14.3"/>
			<rect x="40.5" y="55.5" class="st47" width="0.3" height="14.3"/>
			<rect x="40.7" y="55.5" class="st48" width="0.3" height="14.3"/>
			<rect x="41" y="55.5" class="st49" width="0.3" height="14.3"/>
			<rect x="41.3" y="55.5" class="st50" width="0.3" height="14.3"/>
			<rect x="41.5" y="55.5" class="st51" width="0.3" height="14.3"/>
			<rect x="41.8" y="55.5" class="st52" width="0.3" height="14.3"/>
			<rect x="42.1" y="55.5" class="st53" width="0.3" height="14.3"/>
			<rect x="42.3" y="55.5" class="st54" width="0.3" height="14.3"/>
			<rect x="42.6" y="55.5" class="st55" width="0.3" height="14.3"/>
			<rect x="42.9" y="55.5" class="st56" width="0.3" height="14.3"/>
			<path class="st56" d="M43.1,69.8V55.5V69.8z"/>
		</g>
	</g>
	<g>
		<g>
			<defs>
				<path id="SVGID_11_" d="M53.5,64.5l-3.2,0.8l-0.6-2.3l-6,1.6L43,62.1l2.7-9l4.5-1.2l1.9,7.4l1.5-0.4l0.7,2.8l-1.5,0.4L53.5,64.5
					z M48.9,60.2l-1.2-4.6L46.1,61L48.9,60.2z"/>
			</defs>
			<clipPath id="SVGID_12_">
				<use xlink:href="#SVGID_11_"  style="overflow:visible;"/>
			</clipPath>
			<rect x="46.1" y="55.7" class="st57" width="0" height="5.3"/>
			<rect x="46.1" y="55.7" class="st58" width="0.2" height="5.3"/>
			<rect x="46.3" y="55.7" class="st59" width="0.2" height="5.3"/>
			<rect x="46.6" y="55.7" class="st60" width="0.2" height="5.3"/>
			<rect x="46.8" y="55.7" class="st61" width="0.2" height="5.3"/>
			<rect x="47" y="55.7" class="st62" width="0.2" height="5.3"/>
			<rect x="47.3" y="55.7" class="st63" width="0.2" height="5.3"/>
			<rect x="47.5" y="55.7" class="st64" width="0.2" height="5.3"/>
			<rect x="47.7" y="55.7" class="st65" width="0.2" height="5.3"/>
			<rect x="48" y="55.7" class="st66" width="0.2" height="5.3"/>
			<rect x="48.2" y="55.7" class="st67" width="0.2" height="5.3"/>
			<rect x="48.4" y="55.7" class="st68" width="0.2" height="5.3"/>
			<rect x="48.7" y="55.7" class="st69" width="0.2" height="5.3"/>
			<rect x="48.9" y="55.7" class="st70" width="0" height="5.3"/>
			<path class="st71" d="M43,52v13.4V52z"/>
			<rect x="43" y="52" class="st71" width="0.2" height="13.4"/>
			<rect x="43.3" y="52" class="st72" width="0.2" height="13.4"/>
			<rect x="43.5" y="52" class="st73" width="0.2" height="13.4"/>
			<rect x="43.7" y="52" class="st74" width="0.2" height="13.4"/>
			<rect x="44" y="52" class="st75" width="0.2" height="13.4"/>
			<rect x="44.2" y="52" class="st76" width="0.2" height="13.4"/>
			<rect x="44.5" y="52" class="st77" width="0.2" height="13.4"/>
			<rect x="44.7" y="52" class="st78" width="0.2" height="13.4"/>
			<rect x="44.9" y="52" class="st79" width="0.2" height="13.4"/>
			<rect x="45.2" y="52" class="st80" width="0.2" height="13.4"/>
			<rect x="45.4" y="52" class="st81" width="0.2" height="13.4"/>
			<rect x="45.6" y="52" class="st57" width="0.2" height="13.4"/>
			<rect x="45.9" y="52" class="st57" width="0.2" height="13.4"/>
			<rect x="46.1" y="52" class="st58" width="0.2" height="13.4"/>
			<rect x="46.3" y="52" class="st59" width="0.2" height="13.4"/>
			<rect x="46.6" y="52" class="st60" width="0.2" height="13.4"/>
			<rect x="46.8" y="52" class="st61" width="0.2" height="13.4"/>
			<rect x="47" y="52" class="st62" width="0.2" height="13.4"/>
			<rect x="47.3" y="52" class="st63" width="0.2" height="13.4"/>
			<rect x="47.5" y="52" class="st64" width="0.2" height="13.4"/>
			<rect x="47.7" y="52" class="st65" width="0.2" height="13.4"/>
			<rect x="48" y="52" class="st66" width="0.2" height="13.4"/>
			<rect x="48.2" y="52" class="st67" width="0.2" height="13.4"/>
			<rect x="48.4" y="52" class="st68" width="0.2" height="13.4"/>
			<rect x="48.7" y="52" class="st69" width="0.2" height="13.4"/>
			<rect x="48.9" y="52" class="st70" width="0.2" height="13.4"/>
			<rect x="49.1" y="52" class="st82" width="0.2" height="13.4"/>
			<rect x="49.4" y="52" class="st83" width="0.2" height="13.4"/>
			<rect x="49.6" y="52" class="st84" width="0.2" height="13.4"/>
			<rect x="49.8" y="52" class="st85" width="0.2" height="13.4"/>
			<rect x="50.1" y="52" class="st86" width="0.2" height="13.4"/>
			<rect x="50.3" y="52" class="st87" width="0.2" height="13.4"/>
			<rect x="50.5" y="52" class="st88" width="0.2" height="13.4"/>
			<rect x="50.7" y="52" class="st89" width="0.2" height="13.4"/>
			<rect x="51" y="52" class="st90" width="0.2" height="13.4"/>
			<rect x="51.2" y="52" class="st91" width="0.2" height="13.4"/>
			<rect x="51.4" y="52" class="st92" width="0.2" height="13.4"/>
			<rect x="51.7" y="52" class="st93" width="0.2" height="13.4"/>
			<rect x="51.9" y="52" class="st94" width="0.2" height="13.4"/>
			<rect x="52.1" y="52" class="st95" width="0.2" height="13.4"/>
			<rect x="52.4" y="52" class="st96" width="0.2" height="13.4"/>
			<rect x="52.6" y="52" class="st97" width="0.2" height="13.4"/>
			<rect x="52.8" y="52" class="st98" width="0.2" height="13.4"/>
			<rect x="53.1" y="52" class="st99" width="0.2" height="13.4"/>
			<rect x="53.3" y="52" class="st100" width="0.2" height="13.4"/>
			<rect x="53.5" y="52" class="st101" width="0.2" height="13.4"/>
			<rect x="53.8" y="52" class="st102" width="0.2" height="13.4"/>
			<rect x="54" y="52" class="st103" width="0.2" height="13.4"/>
			<rect x="54.2" y="52" class="st104" width="0.2" height="13.4"/>
			<path class="st104" d="M54.5,65.4V52V65.4z"/>
		</g>
	</g>
	<g>
		<g>
			<defs>
				<path id="SVGID_13_" d="M57.6,63.9l-2,0.5l1-14.4l2-0.5L57.6,63.9z"/>
			</defs>
			<clipPath id="SVGID_14_">
				<use xlink:href="#SVGID_13_"  style="overflow:visible;"/>
			</clipPath>
			<path class="st105" d="M55.5,49.4v15V49.4z"/>
			<rect x="55.5" y="49.4" class="st105" width="0.1" height="15"/>
			<rect x="55.6" y="49.4" class="st106" width="0.1" height="15"/>
			<rect x="55.7" y="49.4" class="st107" width="0.1" height="15"/>
			<rect x="55.7" y="49.4" class="st108" width="0.1" height="15"/>
			<rect x="55.8" y="49.4" class="st109" width="0.1" height="15"/>
			<rect x="55.9" y="49.4" class="st110" width="0.1" height="15"/>
			<rect x="55.9" y="49.4" class="st111" width="0.1" height="15"/>
			<rect x="56" y="49.4" class="st112" width="0.1" height="15"/>
			<rect x="56" y="49.4" class="st113" width="0.1" height="15"/>
			<rect x="56.1" y="49.4" class="st114" width="0.1" height="15"/>
			<rect x="56.2" y="49.4" class="st115" width="0.1" height="15"/>
			<rect x="56.2" y="49.4" class="st116" width="0.1" height="15"/>
			<rect x="56.3" y="49.4" class="st116" width="0.1" height="15"/>
			<rect x="56.4" y="49.4" class="st117" width="0.1" height="15"/>
			<rect x="56.4" y="49.4" class="st118" width="0.1" height="15"/>
			<rect x="56.5" y="49.4" class="st119" width="0.1" height="15"/>
			<rect x="56.5" y="49.4" class="st120" width="0.1" height="15"/>
			<rect x="56.6" y="49.4" class="st121" width="0.1" height="15"/>
			<rect x="56.7" y="49.4" class="st122" width="0.1" height="15"/>
			<rect x="56.7" y="49.4" class="st123" width="0.1" height="15"/>
			<rect x="56.8" y="49.4" class="st124" width="0.1" height="15"/>
			<rect x="56.9" y="49.4" class="st125" width="0.1" height="15"/>
			<rect x="56.9" y="49.4" class="st126" width="0.1" height="15"/>
			<rect x="57" y="49.4" class="st127" width="0.1" height="15"/>
			<rect x="57" y="49.4" class="st128" width="0.1" height="15"/>
			<rect x="57.1" y="49.4" class="st129" width="0.1" height="15"/>
			<rect x="57.2" y="49.4" class="st130" width="0.1" height="15"/>
			<rect x="57.2" y="49.4" class="st131" width="0.1" height="15"/>
			<rect x="57.3" y="49.4" class="st132" width="0.1" height="15"/>
			<rect x="57.4" y="49.4" class="st133" width="0.1" height="15"/>
			<rect x="57.4" y="49.4" class="st134" width="0.1" height="15"/>
			<rect x="57.5" y="49.4" class="st135" width="0.1" height="15"/>
			<rect x="57.5" y="49.4" class="st136" width="0.1" height="15"/>
			<rect x="57.6" y="49.4" class="st137" width="0.1" height="15"/>
			<rect x="57.7" y="49.4" class="st138" width="0.1" height="15"/>
			<rect x="57.7" y="49.4" class="st139" width="0.1" height="15"/>
			<rect x="57.8" y="49.4" class="st140" width="0.1" height="15"/>
			<rect x="57.8" y="49.4" class="st141" width="0.1" height="15"/>
			<rect x="57.9" y="49.4" class="st142" width="0.1" height="15"/>
			<rect x="58" y="49.4" class="st143" width="0.1" height="15"/>
			<rect x="58" y="49.4" class="st144" width="0.1" height="15"/>
			<rect x="58.1" y="49.4" class="st145" width="0.1" height="15"/>
			<rect x="58.2" y="49.4" class="st146" width="0.1" height="15"/>
			<rect x="58.2" y="49.4" class="st147" width="0.1" height="15"/>
			<rect x="58.3" y="49.4" class="st148" width="0.1" height="15"/>
			<rect x="58.3" y="49.4" class="st149" width="0.1" height="15"/>
			<rect x="58.4" y="49.4" class="st150" width="0.1" height="15"/>
			<rect x="58.5" y="49.4" class="st151" width="0.1" height="15"/>
			<rect x="58.5" y="49.4" class="st152" width="0.1" height="15"/>
			<path class="st152" d="M58.6,64.4v-15V64.4z"/>
		</g>
	</g>
	<g>
		<g>
			<defs>
				<path id="SVGID_15_" d="M67.7,60.8l-3.6,0.9l1.7-10.8l-6.1,1.6l-0.7-2.8l9.8-2.6l0.6,2.2L67.7,60.8z"/>
			</defs>
			<clipPath id="SVGID_16_">
				<use xlink:href="#SVGID_15_"  style="overflow:visible;"/>
			</clipPath>
			<path class="st153" d="M59.1,47.1v14.6V47.1z"/>
			<rect x="59.1" y="47.1" class="st153" width="0.2" height="14.6"/>
			<rect x="59.3" y="47.1" class="st154" width="0.2" height="14.6"/>
			<rect x="59.5" y="47.1" class="st155" width="0.2" height="14.6"/>
			<rect x="59.7" y="47.1" class="st156" width="0.2" height="14.6"/>
			<rect x="59.9" y="47.1" class="st157" width="0.2" height="14.6"/>
			<rect x="60.2" y="47.1" class="st158" width="0.2" height="14.6"/>
			<rect x="60.4" y="47.1" class="st159" width="0.2" height="14.6"/>
			<rect x="60.6" y="47.1" class="st160" width="0.2" height="14.6"/>
			<rect x="60.8" y="47.1" class="st161" width="0.2" height="14.6"/>
			<rect x="61" y="47.1" class="st162" width="0.2" height="14.6"/>
			<rect x="61.3" y="47.1" class="st163" width="0.2" height="14.6"/>
			<rect x="61.5" y="47.1" class="st164" width="0.2" height="14.6"/>
			<rect x="61.7" y="47.1" class="st164" width="0.2" height="14.6"/>
			<rect x="61.9" y="47.1" class="st165" width="0.2" height="14.6"/>
			<rect x="62.1" y="47.1" class="st166" width="0.2" height="14.6"/>
			<rect x="62.3" y="47.1" class="st167" width="0.2" height="14.6"/>
			<rect x="62.5" y="47.1" class="st168" width="0.2" height="14.6"/>
			<rect x="62.7" y="47.1" class="st169" width="0.2" height="14.6"/>
			<rect x="62.9" y="47.1" class="st170" width="0.2" height="14.6"/>
			<rect x="63.2" y="47.1" class="st171" width="0.2" height="14.6"/>
			<rect x="63.4" y="47.1" class="st172" width="0.2" height="14.6"/>
			<rect x="63.6" y="47.1" class="st173" width="0.2" height="14.6"/>
			<rect x="63.8" y="47.1" class="st174" width="0.2" height="14.6"/>
			<rect x="64" y="47.1" class="st175" width="0.2" height="14.6"/>
			<rect x="64.2" y="47.1" class="st176" width="0.2" height="14.6"/>
			<rect x="64.4" y="47.1" class="st177" width="0.2" height="14.6"/>
			<rect x="64.6" y="47.1" class="st178" width="0.2" height="14.6"/>
			<rect x="64.8" y="47.1" class="st179" width="0.2" height="14.6"/>
			<rect x="65.1" y="47.1" class="st180" width="0.2" height="14.6"/>
			<rect x="65.3" y="47.1" class="st181" width="0.2" height="14.6"/>
			<rect x="65.5" y="47.1" class="st182" width="0.2" height="14.6"/>
			<rect x="65.7" y="47.1" class="st183" width="0.2" height="14.6"/>
			<rect x="65.9" y="47.1" class="st184" width="0.2" height="14.6"/>
			<rect x="66.1" y="47.1" class="st185" width="0.2" height="14.6"/>
			<rect x="66.3" y="47.1" class="st186" width="0.2" height="14.6"/>
			<rect x="66.5" y="47.1" class="st187" width="0.2" height="14.6"/>
			<rect x="66.7" y="47.1" class="st188" width="0.2" height="14.6"/>
			<rect x="67" y="47.1" class="st189" width="0.2" height="14.6"/>
			<rect x="67.2" y="47.1" class="st190" width="0.2" height="14.6"/>
			<rect x="67.4" y="47.1" class="st191" width="0.2" height="14.6"/>
			<rect x="67.6" y="47.1" class="st192" width="0.2" height="14.6"/>
			<rect x="67.8" y="47.1" class="st193" width="0.2" height="14.6"/>
			<rect x="68" y="47.1" class="st194" width="0.2" height="14.6"/>
			<rect x="68.2" y="47.1" class="st195" width="0.2" height="14.6"/>
			<rect x="68.4" y="47.1" class="st196" width="0.2" height="14.6"/>
			<rect x="68.6" y="47.1" class="st197" width="0.2" height="14.6"/>
			<rect x="68.9" y="47.1" class="st198" width="0.2" height="14.6"/>
			<rect x="69.1" y="47.1" class="st199" width="0.2" height="14.6"/>
			<rect x="69.3" y="47.1" class="st200" width="0.2" height="14.6"/>
			<path class="st200" d="M69.5,61.8V47.1V61.8z"/>
		</g>
	</g>
</g>
<g>
	<path class="st201" d="M42.3,66.6l-9.8,2.6l-0.7-2.5c2.3-2.7,3.7-4.5,4.3-5.4c0.6-0.9,0.8-1.7,0.6-2.3c-0.1-0.4-0.4-0.7-0.8-0.8
		c-0.4-0.1-0.8-0.2-1.3,0c-1.3,0.3-2.2,1.1-3,2.2l-2.3-1.7c0.5-0.9,1.1-1.6,1.9-2.2s1.7-1,2.6-1.2c1.5-0.4,2.8-0.3,4,0.2
		c1.1,0.5,1.9,1.4,2.2,2.7c0.2,0.9,0.1,1.9-0.3,3c-0.5,1.1-1.4,2.4-2.7,3.9l4.6-1.2L42.3,66.6z"/>
	<path class="st201" d="M52.7,63.9l-3.3,0.8l-0.6-2.3l-6,1.6l-0.7-2.5l2.7-9l4.5-1.2l1.9,7.4l1.5-0.4l0.7,2.8l-1.5,0.4L52.7,63.9z
		 M48.1,59.6L46.9,55l-1.7,5.3L48.1,59.6z"/>
	<path class="st201" d="M56.8,63.2l-2,0.5l1-14.4l2-0.5L56.8,63.2z"/>
	<path class="st201" d="M66.9,60.2l-3.6,0.9l1.7-10.8L59,51.9l-0.7-2.8l9.8-2.6l0.6,2.2L66.9,60.2z"/>
</g>
</svg>
