<?xml version="1.0" encoding="utf-8"?>
<!-- Generator: Adobe Illustrator 22.0.0, SVG Export Plug-In . SVG Version: 6.00 Build 0)  -->
<svg version="1.1" id="Слой_1" xmlns="http://www.w3.org/2000/svg" xmlns:xlink="http://www.w3.org/1999/xlink" x="0px" y="0px"
	 viewBox="0 0 100 100" style="enable-background:new 0 0 100 100;" xml:space="preserve">
<style type="text/css">
	.st0{fill:url(#SVGID_1_);}
	.st1{fill:url(#SVGID_2_);}
	.st2{fill:#E9F4FC;}
	.st3{fill:url(#SVGID_3_);}
	.st4{fill:url(#SVGID_4_);}
	.st5{fill:url(#SVGID_5_);}
	.st6{fill:url(#SVGID_6_);}
	.st7{fill:url(#SVGID_7_);}
	.st8{fill:url(#SVGID_8_);}
	.st9{fill:url(#SVGID_9_);}
	.st10{fill:#426FA0;}
	.st11{fill:url(#SVGID_10_);}
	.st12{fill:#FCF6D2;}
	.st13{fill:#223C50;}
	.st14{fill:url(#SVGID_11_);}
</style>
<linearGradient id="SVGID_1_" gradientUnits="userSpaceOnUse" x1="20" y1="56.2199" x2="80.4834" y2="56.2199">
	<stop  offset="0" style="stop-color:#1570A3"/>
	<stop  offset="1" style="stop-color:#B9D7E4"/>
</linearGradient>
<path class="st0" d="M72.8,86.5h-45c-4.2,0-7.7-3.5-7.7-7.7v-45c0-4.2,3.5-7.7,7.7-7.7h45c4.2,0,7.7,3.5,7.7,7.7v45
	C80.5,83,77,86.5,72.8,86.5z"/>
<linearGradient id="SVGID_2_" gradientUnits="userSpaceOnUse" x1="20" y1="52.6831" x2="80.4834" y2="52.6831">
	<stop  offset="0" style="stop-color:#DFF5FB"/>
	<stop  offset="0.2502" style="stop-color:#D3EEF6"/>
	<stop  offset="1" style="stop-color:#AED8E6"/>
</linearGradient>
<path class="st1" d="M73.1,79.6H27.4c-4.1,0-7.4-3.3-7.4-7.4v-39c0-4.1,3.3-7.4,7.4-7.4h45.7c4.1,0,7.4,3.3,7.4,7.4v39
	C80.5,76.3,77.2,79.6,73.1,79.6z"/>
<g>
	<g>
		<g>
			<path class="st2" d="M72.6,77.4H28.3c-3.6,0-6.6-3-6.6-6.6v-38c0-3.6,3-6.6,6.6-6.6h44.2c3.6,0,6.6,3,6.6,6.6v38
				C79.2,74.4,76.2,77.4,72.6,77.4z M28.3,27.5c-2.9,0-5.3,2.4-5.3,5.3v38c0,2.9,2.4,5.3,5.3,5.3h44.2c2.9,0,5.3-2.4,5.3-5.3v-38
				c0-2.9-2.4-5.3-5.3-5.3H28.3z"/>
		</g>
		<g>
			<g>
				<rect x="22.4" y="49.8" class="st2" width="56.2" height="1.3"/>
			</g>
			<g>
				<rect x="22.2" y="62.6" class="st2" width="56.2" height="1.3"/>
			</g>
			<g>
				<rect x="35.7" y="40.7" class="st2" width="1.3" height="36"/>
			</g>
			<g>
				<rect x="49.7" y="40.7" class="st2" width="1.3" height="36"/>
			</g>
			<g>
				<rect x="63.7" y="40.7" class="st2" width="1.3" height="36"/>
			</g>
		</g>
	</g>
</g>
<linearGradient id="SVGID_3_" gradientUnits="userSpaceOnUse" x1="20" y1="33.2802" x2="80.4834" y2="33.2802">
	<stop  offset="0" style="stop-color:#F28B6C"/>
	<stop  offset="1" style="stop-color:#C7586B"/>
</linearGradient>
<path class="st3" d="M80.5,40.8v-7.1c0-4.3-3.6-7.9-7.9-7.9H27.9c-4.3,0-7.9,3.6-7.9,7.9v7.1H80.5z"/>
<g>
	<linearGradient id="SVGID_4_" gradientUnits="userSpaceOnUse" x1="26.1906" y1="45.4675" x2="32.7103" y2="45.4675">
		<stop  offset="0" style="stop-color:#F28B6C"/>
		<stop  offset="1" style="stop-color:#C7586B"/>
	</linearGradient>
	<path class="st4" d="M28.8,47.7C28.8,47.7,28.8,47.7,28.8,47.7c-0.2,0-0.4-0.1-0.5-0.2l-1.9-2.1c-0.2-0.3-0.2-0.7,0-0.9
		c0.3-0.2,0.7-0.2,0.9,0l1.5,1.6l2.8-2.8c0.3-0.3,0.7-0.3,0.9,0c0.3,0.3,0.3,0.7,0,0.9l-3.3,3.2C29.1,47.7,28.9,47.7,28.8,47.7z"/>
</g>
<g>
	<linearGradient id="SVGID_5_" gradientUnits="userSpaceOnUse" x1="40.1937" y1="45.4675" x2="46.7134" y2="45.4675">
		<stop  offset="0" style="stop-color:#F28B6C"/>
		<stop  offset="1" style="stop-color:#C7586B"/>
	</linearGradient>
	<path class="st5" d="M42.8,47.7C42.8,47.7,42.8,47.7,42.8,47.7c-0.2,0-0.4-0.1-0.5-0.2l-1.9-2.1c-0.2-0.3-0.2-0.7,0-0.9
		c0.3-0.2,0.7-0.2,0.9,0l1.5,1.6l2.8-2.8c0.3-0.3,0.7-0.3,0.9,0c0.3,0.3,0.3,0.7,0,0.9l-3.3,3.2C43.1,47.7,42.9,47.7,42.8,47.7z"/>
</g>
<g>
	<linearGradient id="SVGID_6_" gradientUnits="userSpaceOnUse" x1="55.5801" y1="45.4675" x2="62.0998" y2="45.4675">
		<stop  offset="0" style="stop-color:#F28B6C"/>
		<stop  offset="1" style="stop-color:#C7586B"/>
	</linearGradient>
	<path class="st6" d="M58.2,47.7C58.2,47.7,58.1,47.7,58.2,47.7c-0.2,0-0.4-0.1-0.5-0.2l-1.9-2.1c-0.2-0.3-0.2-0.7,0-0.9
		c0.3-0.2,0.7-0.2,0.9,0l1.5,1.6l2.8-2.8c0.3-0.3,0.7-0.3,0.9,0c0.3,0.3,0.3,0.7,0,0.9l-3.3,3.2C58.5,47.7,58.3,47.7,58.2,47.7z"/>
</g>
<g>
	<linearGradient id="SVGID_7_" gradientUnits="userSpaceOnUse" x1="69.5768" y1="45.4675" x2="76.0965" y2="45.4675">
		<stop  offset="0" style="stop-color:#F28B6C"/>
		<stop  offset="1" style="stop-color:#C7586B"/>
	</linearGradient>
	<path class="st7" d="M72.2,47.7C72.1,47.7,72.1,47.7,72.2,47.7c-0.2,0-0.4-0.1-0.5-0.2l-1.9-2.1c-0.2-0.3-0.2-0.7,0-0.9
		c0.3-0.2,0.7-0.2,0.9,0l1.5,1.6l2.8-2.8c0.3-0.3,0.7-0.3,0.9,0c0.3,0.3,0.3,0.7,0,0.9l-3.3,3.2C72.5,47.7,72.3,47.7,72.2,47.7z"/>
</g>
<g>
	<linearGradient id="SVGID_8_" gradientUnits="userSpaceOnUse" x1="26.1906" y1="57.1844" x2="32.7103" y2="57.1844">
		<stop  offset="0" style="stop-color:#F28B6C"/>
		<stop  offset="1" style="stop-color:#C7586B"/>
	</linearGradient>
	<path class="st8" d="M28.8,59.5C28.8,59.5,28.8,59.5,28.8,59.5c-0.2,0-0.4-0.1-0.5-0.2l-1.9-2.1c-0.2-0.3-0.2-0.7,0-0.9
		c0.3-0.2,0.7-0.2,0.9,0l1.5,1.6l2.8-2.8c0.3-0.3,0.7-0.3,0.9,0c0.3,0.3,0.3,0.7,0,0.9l-3.3,3.2C29.1,59.4,28.9,59.5,28.8,59.5z"/>
</g>
<g>
	<linearGradient id="SVGID_9_" gradientUnits="userSpaceOnUse" x1="40.1937" y1="57.1844" x2="46.7134" y2="57.1844">
		<stop  offset="0" style="stop-color:#F28B6C"/>
		<stop  offset="1" style="stop-color:#C7586B"/>
	</linearGradient>
	<path class="st9" d="M42.8,59.5C42.8,59.5,42.8,59.5,42.8,59.5c-0.2,0-0.4-0.1-0.5-0.2l-1.9-2.1c-0.2-0.3-0.2-0.7,0-0.9
		c0.3-0.2,0.7-0.2,0.9,0l1.5,1.6l2.8-2.8c0.3-0.3,0.7-0.3,0.9,0c0.3,0.3,0.3,0.7,0,0.9l-3.3,3.2C43.1,59.4,42.9,59.5,42.8,59.5z"/>
</g>
<path class="st10" d="M33.8,34.2L33.8,34.2c-1.4,0-2.5-1.1-2.5-2.5V23c0-1.4,1.1-2.5,2.5-2.5h0c1.4,0,2.5,1.1,2.5,2.5v8.6
	C36.3,33,35.2,34.2,33.8,34.2z"/>
<path class="st10" d="M67.7,34.2L67.7,34.2c-1.4,0-2.5-1.1-2.5-2.5V23c0-1.4,1.1-2.5,2.5-2.5h0c1.4,0,2.5,1.1,2.5,2.5v8.6
	C70.2,33,69.1,34.2,67.7,34.2z"/>
<g>
	
		<linearGradient id="SVGID_10_" gradientUnits="userSpaceOnUse" x1="75.2074" y1="55.1516" x2="76.1179" y2="76.0934" gradientTransform="matrix(0.942 0.3355 -0.3355 0.942 25.2423 -23.1084)">
		<stop  offset="0" style="stop-color:#F28B6C"/>
		<stop  offset="1" style="stop-color:#C7586B"/>
	</linearGradient>
	<polygon class="st11" points="72.2,83 63.9,80.1 79.3,36.8 87.6,39.8 	"/>
	<polygon class="st12" points="63.9,80.1 65.5,88.8 72.2,83 	"/>
	<polygon class="st13" points="64.6,83.7 69.4,85.4 65.5,88.8 	"/>
	
		<rect x="75.8" y="37.7" transform="matrix(0.942 0.3355 -0.3355 0.942 24.8768 -22.6281)" class="st10" width="4.3" height="45.9"/>
	<linearGradient id="SVGID_11_" gradientUnits="userSpaceOnUse" x1="79.3436" y1="37.6685" x2="87.7447" y2="37.6685">
		<stop  offset="0" style="stop-color:#1570A3"/>
		<stop  offset="1" style="stop-color:#B9D7E4"/>
	</linearGradient>
	<path class="st14" d="M87.6,39.8l-8.3-3v0c0.3-1,1.4-1.5,2.4-1.1l4.7,1.7C87.5,37.7,88,38.8,87.6,39.8L87.6,39.8z"/>
</g>
</svg>
