<?xml version="1.0" encoding="utf-8"?>
<!-- Generator: Adobe Illustrator 22.0.0, SVG Export Plug-In . SVG Version: 6.00 Build 0)  -->
<svg version="1.1" id="Слой_1" xmlns="http://www.w3.org/2000/svg" xmlns:xlink="http://www.w3.org/1999/xlink" x="0px" y="0px"
	 viewBox="0 0 100 100" style="enable-background:new 0 0 100 100;" xml:space="preserve">
<style type="text/css">
	.st0{fill:url(#SVGID_1_);}
	.st1{fill:#223C50;}
	.st2{fill:none;stroke:#B9D7E4;stroke-width:2;stroke-miterlimit:10;}
	.st3{fill:url(#SVGID_2_);}
	.st4{fill:url(#SVGID_3_);}
	.st5{fill:url(#SVGID_4_);}
	.st6{fill:url(#SVGID_5_);}
</style>
<g>
	<linearGradient id="SVGID_1_" gradientUnits="userSpaceOnUse" x1="26.0071" y1="33.802" x2="73.7014" y2="33.802">
		<stop  offset="0" style="stop-color:#DFF5FB"/>
		<stop  offset="0.2502" style="stop-color:#D3EEF6"/>
		<stop  offset="1" style="stop-color:#AED8E6"/>
	</linearGradient>
	<path class="st0" d="M73.5,41.3c0-13.1-10.6-23.6-23.6-23.6c-13.1,0-23.6,10.6-23.6,23.6c0,2.2-0.5,6.5,0.1,8.5h0
		c-0.1-0.7-0.1-1.3-0.1-2c0-13.1,10.6-23.6,23.6-23.6c13.1,0,23.6,10.6,23.6,23.6c0,0.7,0,1.4-0.1,2.1l0.1,0
		C74,48.1,73.5,43.3,73.5,41.3z"/>
	<path class="st1" d="M14.5,58.6L14.5,58.6c-1.8,0-3.2-1.4-3.2-3.2V51c0-1.8,1.4-3.2,3.2-3.2h0c1.8,0,3.2,1.4,3.2,3.2v4.4
		C17.7,57.2,16.3,58.6,14.5,58.6z"/>
	<path class="st1" d="M85.2,57.6L85.2,57.6c-1.8,0-3.2-1.4-3.2-3.2V50c0-1.8,1.4-3.2,3.2-3.2h0c1.8,0,3.2,1.4,3.2,3.2v4.4
		C88.4,56.2,86.9,57.6,85.2,57.6z"/>
	<path class="st2" d="M27.6,66c0,0-3,15.9,20.6,14.9"/>
	<linearGradient id="SVGID_2_" gradientUnits="userSpaceOnUse" x1="45.3258" y1="80.2137" x2="56.377" y2="80.2137">
		<stop  offset="0" style="stop-color:#F28B6C"/>
		<stop  offset="1" style="stop-color:#C7586B"/>
	</linearGradient>
	<path class="st3" d="M53.2,83.3h-4.8c-1.7,0-3.1-1.4-3.1-3.1l0,0c0-1.7,1.4-3.1,3.1-3.1h4.8c1.7,0,3.1,1.4,3.1,3.1l0,0
		C56.4,81.9,55,83.3,53.2,83.3z"/>
	<g>
		<linearGradient id="SVGID_3_" gradientUnits="userSpaceOnUse" x1="32.6597" y1="51.3172" x2="67.69" y2="51.3172">
			<stop  offset="0" style="stop-color:#DFF5FB"/>
			<stop  offset="0.2502" style="stop-color:#D3EEF6"/>
			<stop  offset="1" style="stop-color:#AED8E6"/>
		</linearGradient>
		<path class="st4" d="M67.7,51.3c0-9.7-7.8-17.5-17.5-17.5c-9.7,0-17.5,7.8-17.5,17.5s7.8,17.5,17.5,17.5c2.9,0,5.7-0.7,8.1-2l0,0
			l7.5,2l-1.9-6.6C66.3,59.2,67.7,55.4,67.7,51.3z"/>
		<g>
			<path class="st1" d="M48.8,57.2h-8.9v-2.3c2.5-1.8,4.1-3,4.8-3.7c0.7-0.6,1-1.2,1-1.8c0-0.4-0.2-0.7-0.5-0.9
				c-0.3-0.2-0.7-0.3-1.1-0.3c-1.1,0-2.1,0.4-3,1.2l-1.6-1.9c0.6-0.6,1.3-1.1,2.1-1.4c0.8-0.3,1.7-0.5,2.5-0.5c1.4,0,2.5,0.3,3.3,1
				c0.9,0.7,1.3,1.6,1.3,2.7c0,0.9-0.3,1.7-1,2.5c-0.6,0.8-1.7,1.7-3.1,2.7h4.2V57.2z"/>
			<path class="st1" d="M58.3,57.2h-3v-2.1h-5.4v-2.3l4.3-7h4.1v6.7h1.4v2.6h-1.4V57.2z M55.3,52.6v-4.2l-2.6,4.2H55.3z"/>
		</g>
	</g>
	<linearGradient id="SVGID_4_" gradientUnits="userSpaceOnUse" x1="26.4126" y1="52.752" x2="15.0138" y2="52.474">
		<stop  offset="0" style="stop-color:#1570A3"/>
		<stop  offset="1" style="stop-color:#B9D7E4"/>
	</linearGradient>
	<path class="st5" d="M28.2,66.9V38.7c-7.8,0-14.1,6.3-14.1,14.1S20.5,66.9,28.2,66.9z"/>
	<linearGradient id="SVGID_5_" gradientUnits="userSpaceOnUse" x1="71.2858" y1="52.7941" x2="85.3605" y2="52.7941">
		<stop  offset="0" style="stop-color:#1570A3"/>
		<stop  offset="1" style="stop-color:#B9D7E4"/>
	</linearGradient>
	<path class="st6" d="M71.3,38.7v28.1c7.8,0,14.1-6.3,14.1-14.1S79.1,38.7,71.3,38.7z"/>
</g>
</svg>
