<?xml version="1.0" encoding="utf-8"?>
<!-- Generator: Adobe Illustrator 22.0.0, SVG Export Plug-In . SVG Version: 6.00 Build 0)  -->
<svg version="1.1" id="Слой_1" xmlns="http://www.w3.org/2000/svg" xmlns:xlink="http://www.w3.org/1999/xlink" x="0px" y="0px"
	 viewBox="0 0 100 100" style="enable-background:new 0 0 100 100;" xml:space="preserve">
<style type="text/css">
	.st0{fill:#E9F4FC;}
	.st1{fill:#C1D6E3;}
	.st2{fill:url(#SVGID_1_);}
	.st3{fill:url(#SVGID_2_);}
	.st4{fill:url(#SVGID_3_);}
	.st5{fill:url(#SVGID_4_);}
	.st6{fill:url(#SVGID_5_);}
	.st7{fill:url(#SVGID_6_);}
	.st8{fill:url(#SVGID_7_);}
	.st9{fill:url(#SVGID_8_);}
</style>
<g>
	<g>
		<path class="st0" d="M74.7,88.4H25.3c-6.3,0-11.6-5.2-11.6-11.6V27.6c0-6.3,5.2-11.6,11.6-11.6h49.2c6.3,0,11.6,5.2,11.6,11.6
			v49.2C86.1,83.2,80.9,88.4,74.7,88.4z"/>
		<path class="st1" d="M74.7,16h-4.6c6.3,0,11.6,5.2,11.6,11.6v49.2c0,6.3-5.2,11.6-11.6,11.6h4.6c6.3,0,11.6-5.2,11.6-11.6V27.6
			C86.1,21.3,80.9,16,74.7,16z"/>
		
			<linearGradient id="SVGID_1_" gradientUnits="userSpaceOnUse" x1="28.3293" y1="-14.3125" x2="24.0329" y2="57.4962" gradientTransform="matrix(1 0 0 -1 0 102)">
			<stop  offset="0" style="stop-color:#1570A3"/>
			<stop  offset="1" style="stop-color:#B9D7E4"/>
		</linearGradient>
		<path class="st2" d="M24.6,80.8L24.6,80.8c-1.3,0-2.4-1.1-2.4-2.4V26.1c0-1.3,1.1-2.2,2.2-2.2l0,0c1.3,0,2.4,1.1,2.4,2.2v52.5
			C26.8,79.7,25.9,80.8,24.6,80.8z"/>
		
			<linearGradient id="SVGID_2_" gradientUnits="userSpaceOnUse" x1="44.2909" y1="-13.3576" x2="39.9947" y2="58.4511" gradientTransform="matrix(1 0 0 -1 0 102)">
			<stop  offset="0" style="stop-color:#1570A3"/>
			<stop  offset="1" style="stop-color:#B9D7E4"/>
		</linearGradient>
		<path class="st3" d="M40.6,80.8L40.6,80.8c-1.3,0-2.4-1.1-2.4-2.4V26.1c0-1.3,1.1-2.2,2.2-2.2l0,0c1.3,0,2.4,1.1,2.4,2.2v52.5
			C43,79.7,41.9,80.8,40.6,80.8z"/>
		
			<linearGradient id="SVGID_3_" gradientUnits="userSpaceOnUse" x1="60.3443" y1="-12.397" x2="56.0481" y2="59.4117" gradientTransform="matrix(1 0 0 -1 0 102)">
			<stop  offset="0" style="stop-color:#1570A3"/>
			<stop  offset="1" style="stop-color:#B9D7E4"/>
		</linearGradient>
		<path class="st4" d="M56.6,80.8L56.6,80.8c-1.3,0-2.4-1.1-2.4-2.4V26.1c0-1.3,1.1-2.2,2.4-2.2l0,0c1.3,0,2.4,1.1,2.4,2.2v52.5
			C59,79.7,57.9,80.8,56.6,80.8z"/>
		
			<linearGradient id="SVGID_4_" gradientUnits="userSpaceOnUse" x1="76.3061" y1="-11.4422" x2="72.0099" y2="60.3666" gradientTransform="matrix(1 0 0 -1 0 102)">
			<stop  offset="0" style="stop-color:#1570A3"/>
			<stop  offset="1" style="stop-color:#B9D7E4"/>
		</linearGradient>
		<path class="st5" d="M72.6,80.8L72.6,80.8c-1.3,0-2.4-1.1-2.4-2.4V26.1c0-1.3,1.1-2.2,2.4-2.2l0,0c1.3,0,2.4,1.1,2.4,2.2v52.5
			C75,79.7,73.9,80.8,72.6,80.8z"/>
		
			<linearGradient id="SVGID_5_" gradientUnits="userSpaceOnUse" x1="24.4084" y1="44.5412" x2="24.7868" y2="39.6229" gradientTransform="matrix(1 0 0 -1 0 102)">
			<stop  offset="0" style="stop-color:#F28B6C"/>
			<stop  offset="1" style="stop-color:#C7586B"/>
		</linearGradient>
		<circle class="st6" cx="24.6" cy="59.8" r="4.6"/>
		
			<linearGradient id="SVGID_6_" gradientUnits="userSpaceOnUse" x1="40.4283" y1="60.1788" x2="40.8067" y2="55.2604" gradientTransform="matrix(1 0 0 -1 0 102)">
			<stop  offset="0" style="stop-color:#F28B6C"/>
			<stop  offset="1" style="stop-color:#C7586B"/>
		</linearGradient>
		<circle class="st7" cx="40.6" cy="44.2" r="4.6"/>
		
			<linearGradient id="SVGID_7_" gradientUnits="userSpaceOnUse" x1="56.4579" y1="34.6302" x2="56.8363" y2="29.7118" gradientTransform="matrix(1 0 0 -1 0 102)">
			<stop  offset="0" style="stop-color:#F28B6C"/>
			<stop  offset="1" style="stop-color:#C7586B"/>
		</linearGradient>
		<circle class="st8" cx="56.6" cy="69.6" r="4.6"/>
		
			<linearGradient id="SVGID_8_" gradientUnits="userSpaceOnUse" x1="72.4673" y1="50.2208" x2="72.8455" y2="45.3025" gradientTransform="matrix(1 0 0 -1 0 102)">
			<stop  offset="0" style="stop-color:#F28B6C"/>
			<stop  offset="1" style="stop-color:#C7586B"/>
		</linearGradient>
		<circle class="st9" cx="72.6" cy="54.1" r="4.6"/>
	</g>
</g>
</svg>
