<?xml version="1.0" encoding="utf-8"?>
<!-- Generator: Adobe Illustrator 22.0.0, SVG Export Plug-In . SVG Version: 6.00 Build 0)  -->
<svg version="1.1" id="Слой_1" xmlns="http://www.w3.org/2000/svg" xmlns:xlink="http://www.w3.org/1999/xlink" x="0px" y="0px"
	 viewBox="0 0 100 100" style="enable-background:new 0 0 100 100;" xml:space="preserve">
<style type="text/css">
	.st0{fill:none;stroke:#FFFFFF;stroke-linecap:round;stroke-linejoin:round;stroke-miterlimit:10;}
	.st1{fill:url(#SVGID_1_);}
	.st2{fill:#FFFFFF;}
	.st3{fill:url(#SVGID_2_);}
	.st4{fill:url(#SVGID_3_);}
	.st5{fill:#A9C0D0;}
	.st6{fill:url(#SVGID_4_);}
	.st7{fill:#F7F8DE;}
</style>
<rect x="67.9" y="32.6" class="st0" width="13.3" height="15.7"/>
<g>
	<g>
		<linearGradient id="SVGID_1_" gradientUnits="userSpaceOnUse" x1="46.1626" y1="87.8639" x2="64.7705" y2="58.1992">
			<stop  offset="0" style="stop-color:#1570A3"/>
			<stop  offset="1" style="stop-color:#B9D7E4"/>
		</linearGradient>
		<path class="st1" d="M84.2,74.3H53c-1.1,0-2-0.9-2-2V31.9c0-1.1,0.9-2,2-2h31.3c1.1,0,2,0.9,2,2v40.3
			C86.3,73.4,85.4,74.3,84.2,74.3z"/>
		<path class="st2" d="M59.6,46.2c0,0,2.7-8.9,5.5-6.8c2.6,1.9,2.5,3.2,4.4,2.8c1.4-0.3,2.2-5.8,4.7-4.9c3.5,1.2,4.4,8.9,4.4,8.9
			H59.6z"/>
		<g>
			<path class="st2" d="M81.8,54.9H55.4c-0.3,0-0.5-0.2-0.5-0.5v0c0-0.3,0.2-0.5,0.5-0.5h26.4c0.3,0,0.5,0.2,0.5,0.5v0
				C82.3,54.7,82.1,54.9,81.8,54.9z"/>
			<path class="st2" d="M81.8,57.9H55.4c-0.3,0-0.5-0.2-0.5-0.5l0,0c0-0.3,0.2-0.5,0.5-0.5h26.4c0.3,0,0.5,0.2,0.5,0.5l0,0
				C82.3,57.7,82,57.9,81.8,57.9z"/>
			<path class="st2" d="M81.8,60.9H55.4c-0.3,0-0.5-0.2-0.5-0.5v0c0-0.3,0.2-0.5,0.5-0.5h26.4c0.3,0,0.5,0.2,0.5,0.5v0
				C82.3,60.7,82.1,60.9,81.8,60.9z"/>
			<path class="st2" d="M72.6,63.9H55.4c-0.3,0-0.5-0.2-0.5-0.5l0,0c0-0.3,0.2-0.5,0.5-0.5h17.2c0.3,0,0.5,0.2,0.5,0.5l0,0
				C73,63.7,72.8,63.9,72.6,63.9z"/>
		</g>
	</g>
	<g>
		<linearGradient id="SVGID_2_" gradientUnits="userSpaceOnUse" x1="56.8302" y1="90.4304" x2="20.1589" y2="33.416">
			<stop  offset="0" style="stop-color:#1570A3"/>
			<stop  offset="1" style="stop-color:#B9D7E4"/>
		</linearGradient>
		<path class="st3" d="M47.2,74.3H16.6c-1,0-1.9-0.9-1.9-1.9V32.1c0-1.2,1-2.2,2.2-2.2h30.2c1.6,0,2.9,1.3,2.9,2.9v38.6
			C50.1,73,48.8,74.3,47.2,74.3z"/>
		<path class="st2" d="M23.4,46.2c0,0,2.7-8.9,5.5-6.8c2.6,1.9,2.5,3.2,4.4,2.8c1.4-0.3,2.2-5.8,4.7-4.9c3.5,1.2,4.4,8.9,4.4,8.9
			H23.4z"/>
		<g>
			<path class="st2" d="M45.6,54.9H19.2c-0.3,0-0.5-0.2-0.5-0.5v0c0-0.3,0.2-0.5,0.5-0.5h26.4c0.3,0,0.5,0.2,0.5,0.5v0
				C46.1,54.7,45.9,54.9,45.6,54.9z"/>
			<path class="st2" d="M45.6,57.9H19.2c-0.3,0-0.5-0.2-0.5-0.5l0,0c0-0.3,0.2-0.5,0.5-0.5h26.4c0.3,0,0.5,0.2,0.5,0.5l0,0
				C46,57.7,45.8,57.9,45.6,57.9z"/>
			<path class="st2" d="M45.6,60.9H19.2c-0.3,0-0.5-0.2-0.5-0.5v0c0-0.3,0.2-0.5,0.5-0.5h26.4c0.3,0,0.5,0.2,0.5,0.5v0
				C46.1,60.7,45.9,60.9,45.6,60.9z"/>
			<path class="st2" d="M36.3,63.9H19.2c-0.3,0-0.5-0.2-0.5-0.5l0,0c0-0.3,0.2-0.5,0.5-0.5h17.2c0.3,0,0.5,0.2,0.5,0.5l0,0
				C36.8,63.7,36.6,63.9,36.3,63.9z"/>
		</g>
	</g>
	<rect x="64" y="33.8" class="st0" width="16.7" height="14.3"/>
	<rect x="21" y="33.3" class="st0" width="16.7" height="14.3"/>
	<g>
		<linearGradient id="SVGID_3_" gradientUnits="userSpaceOnUse" x1="50.7565" y1="36.4051" x2="49.6825" y2="96.0099">
			<stop  offset="0" style="stop-color:#DFF5FB"/>
			<stop  offset="0.2502" style="stop-color:#D3EEF6"/>
			<stop  offset="1" style="stop-color:#AED8E6"/>
		</linearGradient>
		<path class="st4" d="M72.1,78.9H28.9c-0.5,0-1-0.4-1-1V23.3c0-0.5,0.4-1,1-1h43.1c0.5,0,1,0.4,1,1V78C73,78.5,72.6,78.9,72.1,78.9
			z"/>
		<path class="st2" d="M36.8,46.3c0,0,4-13.4,8.3-10.2c3.9,2.8,3.7,4.8,6.6,4.2c2.1-0.4,3.3-8.7,7-7.4c5.3,1.9,6.7,13.5,6.7,13.5
			H36.8z"/>
		<g>
			<path class="st5" d="M67.3,54.3H33.7c-0.3,0-0.6-0.3-0.6-0.6v0c0-0.3,0.3-0.6,0.6-0.6h33.7c0.3,0,0.6,0.3,0.6,0.6v0
				C67.9,54,67.7,54.3,67.3,54.3z"/>
			<path class="st5" d="M67.3,58.1H33.6c-0.3,0-0.6-0.3-0.6-0.6l0,0c0-0.3,0.3-0.6,0.6-0.6h33.7c0.3,0,0.6,0.3,0.6,0.6l0,0
				C67.9,57.8,67.6,58.1,67.3,58.1z"/>
			<path class="st5" d="M67.3,61.9H33.7c-0.3,0-0.6-0.3-0.6-0.6l0,0c0-0.3,0.3-0.6,0.6-0.6h33.7c0.3,0,0.6,0.3,0.6,0.6l0,0
				C67.9,61.6,67.7,61.9,67.3,61.9z"/>
			<path class="st5" d="M55.5,65.7H33.6c-0.3,0-0.6-0.3-0.6-0.6l0,0c0-0.3,0.3-0.6,0.6-0.6h21.9c0.3,0,0.6,0.3,0.6,0.6l0,0
				C56.1,65.5,55.9,65.7,55.5,65.7z"/>
		</g>
		<rect x="33.5" y="29.5" class="st0" width="34.4" height="18.9"/>
	</g>
	<linearGradient id="SVGID_4_" gradientUnits="userSpaceOnUse" x1="67.9789" y1="70.3007" x2="67.6786" y2="86.9649">
		<stop  offset="0" style="stop-color:#F28B6C"/>
		<stop  offset="1" style="stop-color:#C7586B"/>
	</linearGradient>
	<circle class="st6" cx="67.9" cy="74.3" r="8"/>
	<g>
		<g>
			<path class="st7" d="M67.1,77.7C67.1,77.7,67.1,77.7,67.1,77.7c-0.2,0-0.4-0.1-0.6-0.3l-2.3-2.5c-0.3-0.3-0.3-0.8,0-1.1
				c0.3-0.3,0.8-0.3,1.1,0l1.8,1.9l3.4-3.4c0.3-0.3,0.8-0.3,1.1,0c0.3,0.3,0.3,0.8,0,1.1l-4,3.9C67.5,77.6,67.3,77.7,67.1,77.7z"/>
		</g>
	</g>
</g>
</svg>
