<?xml version="1.0" encoding="utf-8"?>
<!-- Generator: Adobe Illustrator 22.0.0, SVG Export Plug-In . SVG Version: 6.00 Build 0)  -->
<svg version="1.1" id="Слой_1" xmlns="http://www.w3.org/2000/svg" xmlns:xlink="http://www.w3.org/1999/xlink" x="0px" y="0px"
	 viewBox="0 0 100 100" style="enable-background:new 0 0 100 100;" xml:space="preserve">
<style type="text/css">
	.st0{fill:url(#SVGID_1_);}
	.st1{fill:#4B5A76;}
	.st2{fill:url(#SVGID_2_);}
	.st3{fill:url(#SVGID_3_);}
	.st4{fill:url(#SVGID_4_);}
	.st5{fill:url(#SVGID_5_);}
	.st6{fill:#223C50;}
	.st7{fill:url(#SVGID_6_);}
	.st8{fill:url(#SVGID_7_);}
</style>
<g>
	<g>
		<g>
			<linearGradient id="SVGID_1_" gradientUnits="userSpaceOnUse" x1="20.9397" y1="40.0129" x2="61.023" y2="45.5129">
				<stop  offset="0" style="stop-color:#1570A3"/>
				<stop  offset="1" style="stop-color:#B9D7E4"/>
			</linearGradient>
			<path class="st0" d="M16.8,37.7l41.2-23.8c0.3-0.2,0.6-0.2,0.8-0.2l0,0l0,0c0.1,0,0.2,0.1,0.3,0.1l1.1,0.4l-0.6,0.2
				c0.1,0.2,0.1,0.4,0.1,0.7v28.1c0,1.2-0.8,2.7-1.7,3.2L17,70.3l0,0.7l-1.1-0.4c0,0-0.1,0-0.2-0.1l0,0l0,0
				c-0.4-0.2-0.6-0.7-0.6-1.4V41C15.1,39.7,15.9,38.3,16.8,37.7z"/>
			<polygon class="st1" points="88,64.5 85.9,63.3 88,62.6 			"/>
		</g>
		
			<linearGradient id="SVGID_2_" gradientUnits="userSpaceOnUse" x1="259.3141" y1="59.4166" x2="303.9297" y2="59.4166" gradientTransform="matrix(-1 0 0 -1 320.1884 102)">
			<stop  offset="0" style="stop-color:#1570A3"/>
			<stop  offset="1" style="stop-color:#B9D7E4"/>
		</linearGradient>
		<path class="st2" d="M17.9,70.8L59.2,47c0.9-0.5,1.7-2,1.7-3.2V15.6c0-1.2-0.8-1.8-1.7-1.3L17.9,38.2c-0.9,0.5-1.7,2-1.7,3.2v28.1
			C16.3,70.8,17,71.3,17.9,70.8z"/>
		<linearGradient id="SVGID_3_" gradientUnits="userSpaceOnUse" x1="17.5412" y1="42.548" x2="59.7044" y2="42.548">
			<stop  offset="0" style="stop-color:#DFF5FB"/>
			<stop  offset="0.2502" style="stop-color:#D3EEF6"/>
			<stop  offset="1" style="stop-color:#AED8E6"/>
		</linearGradient>
		<polygon class="st3" points="17.5,69.3 59.7,44.9 59.7,15.8 17.5,40.2 		"/>
		<g>
			<linearGradient id="SVGID_4_" gradientUnits="userSpaceOnUse" x1="29.7413" y1="41.8369" x2="49.9479" y2="41.8369">
				<stop  offset="0" style="stop-color:#9FDBE9;stop-opacity:0"/>
				<stop  offset="1" style="stop-color:#9FDBE9"/>
			</linearGradient>
			<polygon class="st4" points="29.7,33.1 37.4,28.7 49.9,50.5 42.3,54.9 			"/>
			<linearGradient id="SVGID_5_" gradientUnits="userSpaceOnUse" x1="25.9581" y1="45.6447" x2="40.5532" y2="45.6447">
				<stop  offset="0" style="stop-color:#9FDBE9;stop-opacity:0"/>
				<stop  offset="1" style="stop-color:#9FDBE9"/>
			</linearGradient>
			<polygon class="st5" points="26,35.3 28,34.2 40.6,56 38.5,57.1 			"/>
		</g>
	</g>
	<g>
		<path class="st6" d="M17.3,73.7v-2.1l1.6,0.4l39.8-23c1.1-0.6,2.7-0.7,3.6-0.2l25.1,14.5c0.9,0.5,0.8,1.5-0.3,2.1L46.7,88.8
			C45.6,89.4,44,89.5,43,89L17.9,74.5C17.6,74.3,17.4,74,17.3,73.7L17.3,73.7z"/>
		<linearGradient id="SVGID_6_" gradientUnits="userSpaceOnUse" x1="46.8525" y1="67.0542" x2="105.6025" y2="67.8042">
			<stop  offset="0" style="stop-color:#1570A3"/>
			<stop  offset="1" style="stop-color:#B9D7E4"/>
		</linearGradient>
		<path class="st7" d="M46.7,87l40.4-23.4c1.1-0.6,1.2-1.6,0.3-2.1L62.3,47.1c-0.9-0.5-2.6-0.5-3.6,0.2L18.2,70.6
			c-1.1,0.6-1.2,1.6-0.3,2.1L43,87.2C44,87.7,45.6,87.6,46.7,87z"/>
		<g>
			<path class="st6" d="M57.1,67.7c2.4-1.4,4.9-2.8,7.3-4.2c0.4-0.2,0.4-0.4,0-0.6c-0.4-0.2-0.8-0.4-1.1-0.7c-0.4-0.2-0.7-0.2-1.1,0
				c-2.4,1.4-4.9,2.8-7.3,4.2c-2.3,1.3-4.7,2.7-7,4.1c-0.1,0.1-0.3,0.2-0.4,0.2c-0.2,0.1-0.2,0.3,0,0.4c0.5,0.3,0.9,0.5,1.4,0.8
				c0.3,0.2,0.6,0.1,0.9,0c1.2-0.7,2.4-1.4,3.6-2.1C54.6,69.2,55.9,68.4,57.1,67.7L57.1,67.7z"/>
			<path class="st6" d="M36,76.9c1-0.6,1.9-1.1,2.9-1.7c0.4-0.3,0.4-0.4,0-0.7c-0.4-0.2-0.7-0.4-1.1-0.6c-0.4-0.2-0.7-0.2-1.1,0
				c-1.2,0.7-2.3,1.3-3.5,2c-0.7,0.4-1.5,0.9-2.2,1.3c-0.4,0.3-0.4,0.4,0,0.7c0.4,0.2,0.7,0.4,1.1,0.6c0.4,0.3,0.7,0.3,1.2,0
				C34.1,78,35,77.4,36,76.9C36,76.9,36,76.9,36,76.9z"/>
			<path class="st6" d="M32.6,75.8c0.7-0.4,1.5-0.9,2.2-1.3c0.4-0.2,0.4-0.4,0-0.6c-0.4-0.2-0.8-0.5-1.2-0.7c-0.4-0.2-0.6-0.2-1,0
				c-1.5,0.9-3,1.7-4.4,2.6c-0.4,0.2-0.4,0.4,0,0.6c0.4,0.2,0.8,0.4,1.2,0.7c0.4,0.2,0.6,0.2,1,0C31.1,76.6,31.9,76.2,32.6,75.8
				L32.6,75.8z"/>
			<path class="st6" d="M68,55.8c-0.7,0.4-1.4,0.8-2.1,1.2c-0.4,0.2-0.4,0.4,0,0.6c0.4,0.2,0.8,0.4,1.2,0.7c0.4,0.2,0.7,0.2,1,0
				c1.4-0.8,2.9-1.6,4.3-2.5c0.4-0.2,0.4-0.4,0-0.6c-0.4-0.2-0.8-0.4-1.2-0.7c-0.4-0.2-0.6-0.2-1.1,0C69.4,54.9,68.7,55.4,68,55.8
				L68,55.8z"/>
			<path class="st6" d="M26.9,73c0.6-0.4,1.2-0.7,1.8-1.1c0.5-0.3,0.5-0.4,0-0.7c-0.4-0.2-0.8-0.5-1.2-0.7c-0.3-0.2-0.6-0.2-0.9,0
				c-1.3,0.8-2.7,1.5-4,2.3c-0.3,0.2-0.3,0.3,0,0.5c0.4,0.2,0.9,0.5,1.3,0.8c0.3,0.2,0.6,0.2,0.9,0C25.6,73.7,26.2,73.3,26.9,73
				L26.9,73z"/>
			<path class="st6" d="M68.2,55.1c0.5-0.3,1-0.6,1.6-0.9c0.3-0.2,0.3-0.3,0-0.5c-0.4-0.2-0.9-0.5-1.3-0.8c-0.3-0.2-0.6-0.2-0.9,0
				c-1.1,0.6-2.2,1.3-3.3,1.9c-0.3,0.2-0.2,0.3,0,0.5c0.4,0.2,0.9,0.5,1.3,0.8c0.3,0.2,0.6,0.2,0.9,0C67.2,55.8,67.7,55.5,68.2,55.1
				L68.2,55.1z"/>
			<path class="st6" d="M65.8,53.5c0.4-0.2,0.9-0.5,1.3-0.8c0.3-0.2,0.3-0.4,0-0.5c-0.4-0.2-0.9-0.5-1.3-0.7c-0.3-0.2-0.6-0.2-0.9,0
				c-0.9,0.5-1.8,1-2.7,1.6c-0.3,0.2-0.3,0.4,0,0.5c0.4,0.2,0.9,0.5,1.3,0.7c0.3,0.2,0.6,0.2,0.9,0c0.2-0.1,0.4-0.3,0.7-0.4
				C65.3,53.8,65.6,53.6,65.8,53.5L65.8,53.5z"/>
			<path class="st6" d="M73.8,58.1c0.4-0.2,0.9-0.5,1.3-0.8c0.3-0.2,0.3-0.4,0-0.5c-0.4-0.2-0.9-0.5-1.3-0.7c-0.3-0.2-0.6-0.2-0.9,0
				c-0.9,0.5-1.8,1-2.7,1.6c-0.3,0.2-0.2,0.3,0,0.5c0.4,0.3,0.9,0.5,1.3,0.8c0.3,0.2,0.6,0.2,0.9,0C72.9,58.6,73.3,58.3,73.8,58.1
				L73.8,58.1z"/>
			<path class="st6" d="M37.7,76.4c-0.4,0.2-0.8,0.5-1.2,0.7c-0.3,0.2-0.3,0.4,0,0.5c0.4,0.2,0.8,0.5,1.3,0.7c0.4,0.2,0.6,0.2,1,0
				c0.8-0.5,1.7-1,2.5-1.4c0.4-0.2,0.4-0.4,0-0.6c-0.4-0.2-0.8-0.5-1.2-0.7c-0.3-0.2-0.6-0.2-0.9,0C38.6,75.9,38.2,76.2,37.7,76.4
				L37.7,76.4z"/>
			<path class="st6" d="M28.7,75c0.4-0.2,0.8-0.5,1.2-0.7c0.4-0.2,0.4-0.4,0-0.6c-0.4-0.2-0.8-0.5-1.2-0.7c-0.4-0.2-0.7-0.2-1,0
				c-0.8,0.5-1.6,0.9-2.5,1.4c-0.3,0.2-0.3,0.4,0,0.5c0.4,0.2,0.8,0.5,1.3,0.7c0.4,0.2,0.6,0.2,1,0C27.9,75.4,28.3,75.2,28.7,75
				L28.7,75z"/>
			<path class="st6" d="M41.3,74.3c-0.3,0.2-0.7,0.4-1,0.6c-0.3,0.2-0.2,0.3,0,0.5c0.4,0.3,0.9,0.5,1.4,0.8c0.3,0.2,0.6,0.1,0.9,0
				c0.7-0.4,1.3-0.7,1.9-1.1c0.3-0.2,0.3-0.4,0-0.5c-0.4-0.2-0.9-0.5-1.3-0.7c-0.3-0.2-0.6-0.2-0.9,0C41.9,74,41.6,74.1,41.3,74.3
				L41.3,74.3z"/>
			<path class="st6" d="M34.4,78.3c-0.3,0.2-0.7,0.4-1,0.6c-0.3,0.2-0.2,0.3,0,0.5c0.4,0.3,0.9,0.5,1.4,0.8c0.3,0.2,0.6,0.1,0.9,0
				c0.7-0.4,1.3-0.7,1.9-1.1c0.3-0.2,0.3-0.4,0-0.5c-0.4-0.2-0.9-0.5-1.3-0.7c-0.3-0.2-0.6-0.2-0.9,0C35,77.9,34.7,78.1,34.4,78.3
				L34.4,78.3z"/>
			<path class="st6" d="M67.1,61.9c0.3-0.2,0.6-0.4,0.9-0.5c0.3-0.2,0.3-0.3,0-0.5c-0.4-0.3-0.9-0.5-1.4-0.8c-0.3-0.2-0.6-0.1-0.8,0
				c-0.6,0.4-1.3,0.7-1.9,1.1c-0.3,0.2-0.3,0.3,0,0.5c0.4,0.2,0.9,0.5,1.3,0.8c0.3,0.2,0.6,0.2,0.9,0C66.5,62.3,66.8,62.1,67.1,61.9
				L67.1,61.9z"/>
			<path class="st6" d="M68.1,58.8c-0.3,0.2-0.6,0.3-0.9,0.5c-0.3,0.2-0.3,0.3,0,0.5c0.4,0.2,0.9,0.5,1.3,0.8c0.3,0.2,0.6,0.2,0.9,0
				c0.6-0.4,1.3-0.7,1.9-1.1c0.3-0.2,0.2-0.3,0-0.5c-0.4-0.2-0.9-0.5-1.3-0.8c-0.3-0.2-0.6-0.2-0.9,0C68.7,58.5,68.4,58.6,68.1,58.8
				z"/>
			<path class="st6" d="M47,73.6c0.3-0.2,0.6-0.3,0.9-0.5c0.3-0.2,0.2-0.3,0-0.5c-0.4-0.2-0.9-0.5-1.3-0.8c-0.3-0.2-0.6-0.2-0.9,0
				c-0.6,0.4-1.2,0.7-1.8,1.1c-0.3,0.2-0.3,0.3,0,0.5c0.4,0.3,0.9,0.5,1.3,0.8c0.3,0.2,0.6,0.2,0.9,0C46.4,73.9,46.7,73.8,47,73.6
				L47,73.6z"/>
			<path class="st6" d="M41.4,73.7c0.2-0.1,0.5-0.3,0.7-0.4c0.3-0.2,0.3-0.3,0-0.5c-0.4-0.3-0.9-0.5-1.4-0.8c-0.3-0.2-0.6-0.1-0.8,0
				c-0.5,0.3-1.1,0.6-1.6,0.9c-0.2,0.2-0.2,0.3,0,0.5c0.4,0.3,0.9,0.5,1.4,0.8c0.3,0.2,0.6,0.1,0.9,0C40.9,74,41.2,73.9,41.4,73.7
				L41.4,73.7z"/>
			<path class="st6" d="M34.3,66.1c-0.2,0.1-0.4,0.2-0.7,0.4c-0.2,0.2-0.2,0.3,0,0.5c0.4,0.3,0.9,0.5,1.4,0.8c0.2,0.1,0.6,0.1,0.8,0
				c0.5-0.3,0.9-0.5,1.4-0.8c0.2-0.2,0.2-0.3,0-0.4c-0.4-0.3-0.9-0.5-1.4-0.8c-0.3-0.2-0.6-0.1-0.9,0C34.8,65.8,34.6,65.9,34.3,66.1
				C34.3,66.1,34.3,66.1,34.3,66.1z"/>
			<path class="st6" d="M61.3,51.7c-0.2-0.1-0.4-0.2-0.7-0.4c-0.3-0.2-0.6-0.2-0.9,0c-0.4,0.2-0.9,0.5-1.3,0.8
				c-0.3,0.2-0.3,0.3,0,0.5c0.4,0.3,0.9,0.5,1.3,0.8c0.3,0.2,0.6,0.2,0.9,0c0.4-0.2,0.9-0.5,1.3-0.8c0.3-0.2,0.3-0.3,0-0.5
				c-0.1-0.1-0.2-0.1-0.3-0.2C61.5,51.9,61.4,51.8,61.3,51.7z"/>
			<path class="st6" d="M42.7,69.9c0.2-0.1,0.4-0.2,0.7-0.4c0.3-0.2,0.3-0.3,0-0.5c-0.4-0.3-0.9-0.5-1.4-0.8c-0.3-0.1-0.6-0.2-0.8,0
				c-0.5,0.2-0.9,0.5-1.4,0.8c-0.2,0.2-0.3,0.3,0,0.5c0.4,0.3,0.9,0.5,1.4,0.8c0.3,0.2,0.6,0.2,0.9,0c0.1-0.1,0.2-0.1,0.4-0.2
				C42.5,70,42.6,70,42.7,69.9z"/>
			<path class="st6" d="M55,58.5c0.2,0.1,0.4,0.2,0.7,0.4c0.3,0.2,0.6,0.2,0.9,0c0.5-0.2,0.9-0.5,1.4-0.8c0.3-0.2,0.2-0.3,0-0.5
				c-0.4-0.3-0.9-0.5-1.3-0.8c-0.3-0.2-0.6-0.2-0.9,0c-0.4,0.2-0.9,0.5-1.3,0.7c-0.3,0.2-0.3,0.4,0,0.5C54.6,58.2,54.8,58.3,55,58.5
				L55,58.5z"/>
			<path class="st6" d="M47.8,60.8c0.2-0.1,0.4-0.2,0.7-0.4c0.3-0.2,0.3-0.3,0-0.5c-0.4-0.3-0.9-0.5-1.3-0.8c-0.3-0.2-0.6-0.2-0.9,0
				c-0.4,0.2-0.8,0.5-1.2,0.7c-0.3,0.2-0.3,0.4,0,0.6c0.4,0.2,0.8,0.5,1.3,0.7c0.3,0.2,0.6,0.2,0.9,0C47.4,61.1,47.6,61,47.8,60.8
				L47.8,60.8z"/>
			<path class="st6" d="M53.8,56.1c0.2,0.1,0.4,0.2,0.7,0.4c0.3,0.2,0.6,0.2,0.9,0c0.4-0.2,0.9-0.5,1.3-0.8c0.3-0.2,0.3-0.3,0-0.5
				c-0.4-0.3-0.9-0.5-1.3-0.8c-0.3-0.2-0.6-0.2-0.9,0c-0.4,0.2-0.9,0.5-1.3,0.7c-0.3,0.2-0.3,0.3,0,0.5C53.4,55.8,53.6,56,53.8,56.1
				z"/>
			<path class="st6" d="M41.1,65.2c-0.2,0.1-0.4,0.3-0.7,0.4c-0.2,0.2-0.2,0.3,0,0.5c0.4,0.3,0.9,0.5,1.4,0.8c0.3,0.2,0.6,0.2,0.8,0
				c0.5-0.2,0.9-0.5,1.4-0.8c0.3-0.2,0.2-0.3,0-0.5c-0.4-0.3-0.9-0.5-1.3-0.8c-0.3-0.2-0.6-0.2-0.9,0C41.6,65,41.4,65.1,41.1,65.2
				L41.1,65.2z"/>
			<path class="st6" d="M63.9,59.5c0.2,0.1,0.4,0.2,0.7,0.4c0.3,0.2,0.6,0.2,0.9,0c0.5-0.2,0.9-0.5,1.4-0.8c0.2-0.2,0.2-0.3,0-0.5
				c-0.4-0.3-0.9-0.5-1.4-0.8c-0.3-0.2-0.6-0.2-0.9,0c-0.4,0.3-0.9,0.5-1.3,0.8c-0.2,0.2-0.2,0.3,0,0.5
				C63.4,59.2,63.6,59.3,63.9,59.5L63.9,59.5z"/>
			<path class="st6" d="M61.1,59.8c-0.2,0.1-0.4,0.2-0.7,0.4c-0.3,0.2-0.3,0.3,0,0.5c0.4,0.3,0.9,0.5,1.4,0.8c0.3,0.1,0.6,0.1,0.8,0
				c0.5-0.3,0.9-0.5,1.4-0.8c0.2-0.2,0.2-0.3,0-0.5c-0.4-0.3-0.9-0.5-1.4-0.8c-0.3-0.2-0.6-0.2-0.9,0C61.6,59.5,61.3,59.6,61.1,59.8
				L61.1,59.8z"/>
			<path class="st6" d="M35.6,69.7c0.2,0.1,0.4,0.2,0.7,0.4c0.3,0.2,0.6,0.2,0.9,0c0.4-0.2,0.9-0.5,1.3-0.8c0.3-0.2,0.3-0.3,0-0.5
				c-0.4-0.3-0.9-0.5-1.4-0.8c-0.3-0.2-0.6-0.2-0.9,0c-0.4,0.2-0.9,0.5-1.3,0.8c-0.3,0.2-0.3,0.3,0,0.5c0.1,0.1,0.2,0.1,0.4,0.2
				C35.4,69.6,35.5,69.7,35.6,69.7z"/>
			<path class="st6" d="M60.3,55.4c0.2,0.1,0.4,0.2,0.6,0.4c0.3,0.2,0.6,0.2,0.9,0c0.4-0.2,0.9-0.5,1.3-0.7c0.3-0.2,0.3-0.3,0-0.5
				c-0.4-0.2-0.9-0.5-1.3-0.8c-0.3-0.2-0.6-0.2-0.9,0c-0.4,0.2-0.9,0.5-1.3,0.8c-0.3,0.2-0.3,0.4,0,0.5
				C59.8,55.1,60.1,55.3,60.3,55.4L60.3,55.4z"/>
			<path class="st6" d="M48.8,63.8c-0.2,0.1-0.4,0.3-0.7,0.4c-0.2,0.2-0.3,0.3,0,0.5c0.4,0.3,0.9,0.5,1.4,0.8c0.3,0.2,0.6,0.1,0.8,0
				c0.4-0.2,0.9-0.5,1.3-0.7c0.3-0.2,0.3-0.3,0-0.5c-0.4-0.2-0.9-0.5-1.3-0.7c-0.4-0.2-0.6-0.2-0.9,0C49.2,63.6,49,63.7,48.8,63.8
				L48.8,63.8z"/>
			<path class="st6" d="M44.2,72.1c0.2-0.1,0.4-0.2,0.7-0.4c0.3-0.2,0.3-0.3,0-0.5c-0.4-0.3-0.9-0.5-1.4-0.8c-0.3-0.2-0.6-0.1-0.8,0
				c-0.5,0.2-0.9,0.5-1.4,0.8c-0.3,0.2-0.2,0.3,0,0.5c0.4,0.2,0.9,0.5,1.3,0.8c0.3,0.2,0.6,0.2,0.9,0c0.1-0.1,0.2-0.1,0.3-0.2
				C44,72.2,44.1,72.2,44.2,72.1z"/>
			<path class="st6" d="M51,57.7c0.2,0.1,0.4,0.2,0.7,0.4c0.3,0.2,0.6,0.2,0.9,0c0.4-0.2,0.9-0.5,1.3-0.8c0.3-0.2,0.3-0.3,0-0.5
				c-0.4-0.3-0.9-0.5-1.3-0.8c-0.3-0.2-0.6-0.2-0.9,0c-0.4,0.2-0.9,0.5-1.3,0.7c-0.3,0.2-0.3,0.3,0,0.5C50.6,57.5,50.8,57.6,51,57.7
				L51,57.7z"/>
			<path class="st6" d="M50.7,59.2c0.2-0.1,0.5-0.3,0.7-0.4c0.2-0.2,0.2-0.3,0-0.4c-0.4-0.3-0.9-0.5-1.4-0.8c-0.3-0.2-0.6-0.1-0.8,0
				c-0.4,0.2-0.9,0.5-1.3,0.8c-0.3,0.2-0.3,0.3,0,0.5c0.4,0.3,0.9,0.5,1.4,0.8c0.3,0.1,0.6,0.1,0.8,0C50.3,59.4,50.5,59.3,50.7,59.2
				L50.7,59.2z"/>
			<path class="st6" d="M31.7,67.6c-0.2,0.1-0.4,0.3-0.7,0.4c-0.3,0.2-0.2,0.3,0,0.5c0.4,0.3,0.9,0.5,1.3,0.8c0.3,0.2,0.6,0.2,0.9,0
				c0.5-0.2,0.9-0.5,1.4-0.8c0.3-0.2,0.2-0.3,0-0.5c-0.4-0.2-0.9-0.5-1.3-0.7c-0.3-0.2-0.6-0.2-0.9,0C32.1,67.4,31.9,67.5,31.7,67.6
				L31.7,67.6z"/>
			<path class="st6" d="M30.9,69.3c-0.2-0.1-0.4-0.2-0.6-0.3c-0.3-0.2-0.6-0.2-0.9,0c-0.4,0.2-0.9,0.5-1.3,0.8
				c-0.3,0.2-0.3,0.3,0,0.5c0.4,0.3,0.9,0.5,1.3,0.8c0.3,0.2,0.6,0.2,0.9,0c0.4-0.2,0.9-0.5,1.3-0.8c0.3-0.2,0.3-0.3,0-0.5
				C31.4,69.5,31.2,69.4,30.9,69.3L30.9,69.3z"/>
			<path class="st6" d="M59.8,57c0.2-0.1,0.4-0.2,0.7-0.4c0.3-0.2,0.3-0.3,0-0.5c-0.4-0.3-0.9-0.5-1.4-0.8c-0.3-0.1-0.6-0.1-0.8,0
				c-0.4,0.2-0.9,0.5-1.3,0.8c-0.3,0.2-0.3,0.3,0,0.5c0.4,0.2,0.9,0.5,1.3,0.8c0.3,0.2,0.6,0.2,0.9,0c0.1-0.1,0.2-0.1,0.3-0.2
				C59.6,57.1,59.7,57,59.8,57L59.8,57z"/>
			<path class="st6" d="M46.8,63.2c0.2,0.1,0.4,0.3,0.7,0.4c0.3,0.2,0.6,0.2,0.8,0c0.5-0.2,0.9-0.5,1.4-0.8c0.3-0.2,0.3-0.3,0-0.5
				c-0.4-0.3-0.9-0.5-1.3-0.8c-0.3-0.2-0.6-0.2-0.9,0c-0.4,0.3-0.9,0.5-1.4,0.8c-0.3,0.2-0.2,0.3,0,0.5C46.3,63,46.5,63.1,46.8,63.2
				L46.8,63.2z"/>
			<path class="st6" d="M63.8,50.3c-0.2-0.1-0.4-0.2-0.7-0.4c-0.3-0.2-0.6-0.2-0.9,0c-0.5,0.3-0.9,0.5-1.4,0.8
				c-0.3,0.2-0.2,0.3,0,0.5c0.4,0.3,0.9,0.5,1.3,0.8c0.3,0.2,0.6,0.2,0.9,0c0.4-0.2,0.9-0.5,1.3-0.8c0.3-0.2,0.3-0.3,0-0.5
				C64.2,50.5,64,50.4,63.8,50.3L63.8,50.3z"/>
			<path class="st6" d="M62.3,57.3c0.2,0.1,0.4,0.2,0.7,0.4c0.3,0.2,0.6,0.2,0.8,0c0.5-0.3,1-0.5,1.4-0.8c0.2-0.2,0.2-0.3,0-0.4
				c-0.4-0.3-0.9-0.5-1.4-0.8c-0.3-0.2-0.6-0.1-0.9,0c-0.4,0.2-0.9,0.5-1.3,0.8c-0.3,0.2-0.3,0.3,0,0.5C61.9,57,62.1,57.2,62.3,57.3
				L62.3,57.3z"/>
			<path class="st6" d="M53.1,64.4c-0.2,0.1-0.4,0.2-0.7,0.4c-0.3,0.2-0.3,0.3,0,0.5c0.4,0.2,0.9,0.5,1.3,0.8c0.3,0.2,0.6,0.2,0.9,0
				c0.4-0.2,0.9-0.5,1.3-0.7c0.3-0.2,0.3-0.4,0-0.6c-0.4-0.2-0.8-0.5-1.3-0.7c-0.3-0.2-0.6-0.2-0.9,0C53.5,64.1,53.3,64.3,53.1,64.4
				L53.1,64.4z"/>
			<path class="st6" d="M52.5,67.3c0.2-0.1,0.4-0.3,0.7-0.4c0.2-0.2,0.2-0.3,0-0.5c-0.4-0.3-0.9-0.5-1.4-0.8c-0.3-0.2-0.6-0.2-0.9,0
				c-0.4,0.2-0.9,0.5-1.3,0.8c-0.3,0.2-0.3,0.3,0,0.5c0.4,0.3,0.9,0.5,1.3,0.8c0.3,0.2,0.6,0.2,0.9,0C52.1,67.6,52.3,67.4,52.5,67.3
				z"/>
			<path class="st6" d="M49.8,68.9c0.2-0.1,0.4-0.2,0.6-0.4c0.3-0.2,0.3-0.3,0-0.5c-0.4-0.3-0.9-0.5-1.4-0.8c-0.3-0.2-0.6-0.1-0.9,0
				c-0.4,0.2-0.9,0.5-1.3,0.8c-0.3,0.2-0.3,0.3,0,0.5c0.4,0.2,0.9,0.5,1.3,0.8c0.3,0.2,0.6,0.2,0.9,0C49.3,69.2,49.5,69,49.8,68.9
				L49.8,68.9z"/>
			<path class="st6" d="M35,70c-0.2-0.1-0.4-0.2-0.7-0.4c-0.3-0.2-0.6-0.2-0.9,0c-0.4,0.2-0.9,0.5-1.3,0.8c-0.3,0.2-0.3,0.3,0,0.5
				c0.4,0.3,0.9,0.5,1.3,0.8c0.3,0.2,0.6,0.2,0.9,0c0.4-0.2,0.9-0.5,1.3-0.8c0.3-0.2,0.3-0.3,0-0.5C35.5,70.2,35.2,70.1,35,70L35,70
				z"/>
			<path class="st6" d="M46.9,70.5c0.2-0.1,0.4-0.2,0.7-0.4c0.3-0.2,0.3-0.3,0-0.5c-0.4-0.3-0.9-0.5-1.4-0.8c-0.3-0.2-0.6-0.2-0.8,0
				c-0.5,0.2-0.9,0.5-1.4,0.8c-0.3,0.2-0.2,0.3,0,0.5c0.4,0.3,0.9,0.5,1.3,0.8c0.3,0.2,0.6,0.2,0.9,0c0.1-0.1,0.2-0.1,0.3-0.2
				C46.7,70.7,46.8,70.6,46.9,70.5L46.9,70.5z"/>
			<path class="st6" d="M58,64.1c0.2-0.1,0.5-0.2,0.7-0.4c0.2-0.2,0.3-0.3,0-0.5c-0.4-0.3-0.9-0.5-1.4-0.8c-0.3-0.2-0.6-0.2-0.8,0
				c-0.5,0.2-0.9,0.5-1.4,0.8c-0.3,0.2-0.3,0.3,0,0.5c0.4,0.3,0.9,0.5,1.3,0.8c0.3,0.2,0.6,0.2,0.9,0c0.1-0.1,0.2-0.1,0.3-0.2
				C57.8,64.3,57.9,64.2,58,64.1C58.1,64.1,58,64.1,58,64.1z"/>
			<path class="st6" d="M58.5,62.6c0.2,0.1,0.4,0.2,0.7,0.4c0.3,0.2,0.6,0.2,0.9,0c0.5-0.2,0.9-0.5,1.4-0.8c0.2-0.2,0.2-0.3,0-0.5
				c-0.4-0.3-0.9-0.5-1.4-0.8c-0.3-0.2-0.6-0.2-0.9,0c-0.4,0.2-0.9,0.5-1.3,0.8c-0.3,0.2-0.3,0.3,0,0.5
				C58.1,62.3,58.3,62.5,58.5,62.6L58.5,62.6z"/>
			<path class="st6" d="M51.6,63.5c0.2,0.1,0.4,0.2,0.7,0.4c0.3,0.2,0.6,0.2,0.9,0c0.4-0.2,0.9-0.5,1.3-0.8c0.3-0.2,0.3-0.3,0-0.5
				c-0.4-0.3-0.9-0.5-1.4-0.8c-0.3-0.2-0.6-0.2-0.9,0c-0.4,0.3-0.9,0.5-1.3,0.8c-0.3,0.2-0.3,0.3,0,0.5
				C51.2,63.2,51.4,63.4,51.6,63.5L51.6,63.5z"/>
			<path class="st6" d="M54.4,60.1c0.2-0.1,0.4-0.2,0.7-0.4c0.3-0.2,0.3-0.3,0-0.5c-0.4-0.3-0.9-0.5-1.3-0.8c-0.3-0.2-0.6-0.2-0.9,0
				c-0.4,0.2-0.9,0.5-1.3,0.7c-0.3,0.2-0.3,0.4,0,0.5c0.4,0.2,0.8,0.5,1.3,0.7c0.3,0.2,0.6,0.2,0.9,0c0.1-0.1,0.2-0.1,0.3-0.2
				C54.2,60.2,54.3,60.2,54.4,60.1L54.4,60.1z"/>
			<path class="st6" d="M45.4,68.4c0.2-0.1,0.5-0.3,0.7-0.4c0.2-0.2,0.3-0.3,0-0.5c-0.5-0.3-0.9-0.5-1.4-0.8c-0.3-0.2-0.6-0.1-0.8,0
				c-0.4,0.2-0.9,0.5-1.3,0.8c-0.3,0.2-0.3,0.3,0,0.5c0.4,0.3,0.9,0.5,1.3,0.8c0.3,0.2,0.6,0.2,0.9,0C45,68.6,45.2,68.5,45.4,68.4
				L45.4,68.4z"/>
			<path class="st6" d="M45.1,62.4c0.2-0.1,0.4-0.3,0.7-0.4c0.3-0.2,0.3-0.3,0-0.5c-0.4-0.3-0.9-0.5-1.4-0.8c-0.3-0.2-0.6-0.1-0.8,0
				c-0.5,0.3-0.9,0.5-1.4,0.8c-0.2,0.2-0.2,0.3,0,0.5c0.4,0.2,0.9,0.5,1.3,0.8c0.3,0.2,0.6,0.2,0.9,0C44.7,62.7,44.9,62.5,45.1,62.4
				L45.1,62.4z"/>
			<path class="st6" d="M40.6,66.8c-0.2-0.1-0.4-0.2-0.6-0.4c-0.3-0.2-0.6-0.2-0.9,0c-0.4,0.2-0.9,0.5-1.3,0.8
				c-0.3,0.2-0.2,0.3,0,0.5c0.4,0.3,0.9,0.5,1.4,0.8c0.3,0.2,0.6,0.2,0.9,0c0.4-0.2,0.9-0.5,1.3-0.8c0.3-0.2,0.3-0.3,0-0.5
				C41.1,67,40.9,66.9,40.6,66.8L40.6,66.8z"/>
			<path class="st6" d="M56.5,60.7c-0.2-0.1-0.5-0.3-0.7-0.4c-0.2-0.1-0.5-0.1-0.8,0c-0.5,0.3-0.9,0.5-1.4,0.8
				c-0.3,0.2-0.2,0.3,0,0.5c0.4,0.3,0.9,0.5,1.4,0.8c0.3,0.2,0.6,0.2,0.8,0c0.5-0.3,0.9-0.5,1.4-0.8c0.2-0.2,0.2-0.3,0-0.5
				C57,60.9,56.7,60.8,56.5,60.7z"/>
			<path class="st6" d="M30,71.7c-0.2,0.1-0.4,0.2-0.7,0.4c-0.3,0.2-0.3,0.3,0,0.5c0.4,0.3,0.9,0.5,1.3,0.8c0.3,0.2,0.6,0.2,0.9,0
				c0.4-0.2,0.9-0.5,1.3-0.7c0.3-0.2,0.3-0.3,0-0.5c-0.4-0.2-0.9-0.5-1.3-0.8c-0.3-0.2-0.6-0.2-0.9,0l0,0
				C30.3,71.5,30.1,71.6,30,71.7L30,71.7z"/>
			<path class="st6" d="M34.9,73.2c0.2,0.1,0.4,0.2,0.6,0.4c0.3,0.2,0.6,0.2,0.9,0c0.4-0.2,0.9-0.5,1.3-0.8c0.3-0.2,0.2-0.3,0-0.5
				c-0.4-0.3-0.9-0.5-1.4-0.8c-0.3-0.2-0.6-0.2-0.9,0c-0.4,0.2-0.9,0.5-1.3,0.8c-0.3,0.2-0.3,0.3,0,0.5
				C34.5,72.9,34.7,73.1,34.9,73.2L34.9,73.2z"/>
			<path class="st6" d="M57,59.1c-0.2,0.1-0.4,0.2-0.7,0.4c-0.3,0.2-0.3,0.3,0,0.5c0.4,0.2,0.9,0.5,1.3,0.8c0.3,0.2,0.6,0.2,0.9,0
				c0.5-0.3,0.9-0.5,1.4-0.8c0.2-0.2,0.2-0.3,0-0.5c-0.4-0.3-0.9-0.5-1.3-0.8c-0.3-0.2-0.6-0.2-0.9,0C57.4,58.9,57.2,59,57,59.1
				L57,59.1z"/>
			<path class="st6" d="M42.2,64.1c0.2-0.1,0.4-0.2,0.6-0.4c0.3-0.2,0.3-0.3,0-0.5c-0.4-0.3-0.9-0.5-1.4-0.8c-0.3-0.2-0.6-0.1-0.8,0
				c-0.5,0.2-0.9,0.5-1.4,0.8c-0.2,0.2-0.2,0.3,0,0.5c0.4,0.3,0.9,0.5,1.4,0.8c0.3,0.2,0.6,0.1,0.9,0C41.8,64.3,42,64.2,42.2,64.1
				L42.2,64.1z"/>
			<path class="st6" d="M46,65.5c-0.2,0.1-0.4,0.3-0.7,0.4c-0.3,0.2-0.3,0.3,0,0.5c0.5,0.3,0.9,0.6,1.4,0.8c0.2,0.1,0.5,0.1,0.8,0
				c0.4-0.2,0.9-0.5,1.3-0.8c0.3-0.2,0.3-0.3,0-0.5c-0.4-0.3-0.9-0.5-1.3-0.8c-0.3-0.2-0.6-0.2-0.9,0C46.4,65.2,46.2,65.3,46,65.5
				L46,65.5z"/>
			<path class="st6" d="M46.2,63.5c-0.2-0.1-0.4-0.3-0.7-0.4c-0.2-0.1-0.5-0.1-0.8,0c-0.5,0.3-0.9,0.5-1.4,0.8
				c-0.2,0.1-0.2,0.3,0,0.4c0.4,0.3,0.9,0.5,1.4,0.8c0.3,0.1,0.6,0.1,0.8,0c0.4-0.2,0.9-0.5,1.3-0.8c0.3-0.2,0.3-0.3,0-0.5
				c0,0,0,0-0.1,0C46.6,63.7,46.5,63.6,46.2,63.5L46.2,63.5z"/>
			<path class="st6" d="M56.4,53.3c-0.2,0.1-0.4,0.2-0.7,0.4c-0.3,0.2-0.3,0.3,0,0.5c0.4,0.3,0.9,0.5,1.3,0.8c0.3,0.2,0.6,0.2,0.9,0
				c0.4-0.2,0.9-0.5,1.3-0.8c0.3-0.2,0.3-0.3,0-0.5c-0.4-0.3-0.9-0.5-1.3-0.8c-0.3-0.2-0.6-0.2-0.9,0C56.8,53,56.6,53.2,56.4,53.3
				C56.4,53.3,56.4,53.3,56.4,53.3z"/>
			<path class="st6" d="M39.5,64.4c-0.2-0.1-0.4-0.2-0.7-0.4c-0.3-0.2-0.6-0.2-0.8,0c-0.5,0.3-0.9,0.5-1.4,0.8
				c-0.2,0.2-0.2,0.3,0,0.5c0.4,0.3,0.9,0.5,1.3,0.8c0.3,0.2,0.6,0.2,0.9,0c0.5-0.3,0.9-0.5,1.4-0.8c0.2-0.1,0.2-0.3,0-0.4
				C40,64.6,39.7,64.5,39.5,64.4L39.5,64.4z"/>
			<path class="st6" d="M40,71.5c0.2-0.1,0.4-0.2,0.7-0.4c0.3-0.2,0.3-0.3,0-0.5c-0.4-0.3-0.9-0.5-1.4-0.8c-0.2-0.1-0.5-0.1-0.8,0
				c-0.5,0.3-0.9,0.5-1.4,0.8c-0.2,0.1-0.2,0.3,0,0.4c0.4,0.3,0.9,0.5,1.4,0.8c0.3,0.2,0.6,0.1,0.8,0C39.5,71.8,39.8,71.6,40,71.5
				L40,71.5z"/>
			<path class="st6" d="M61.8,58.8c0.2-0.1,0.4-0.2,0.6-0.4c0.3-0.2,0.3-0.3,0-0.5c-0.4-0.3-0.9-0.5-1.3-0.8c-0.3-0.2-0.6-0.2-0.8,0
				c-0.5,0.3-0.9,0.5-1.4,0.8c-0.3,0.2-0.2,0.3,0,0.5c0.4,0.3,0.9,0.5,1.3,0.8c0.3,0.2,0.6,0.2,0.9,0c0,0,0,0,0.1,0
				C61.5,59.1,61.7,59,61.8,58.8L61.8,58.8z"/>
			<path class="st6" d="M51.9,61.6c0.2-0.1,0.4-0.3,0.7-0.4c0.2-0.2,0.2-0.3,0-0.5c-0.4-0.3-0.9-0.5-1.4-0.8c-0.2-0.1-0.5-0.1-0.8,0
				c-0.5,0.2-0.9,0.5-1.4,0.8c-0.3,0.2-0.3,0.3,0,0.5c0.4,0.3,0.9,0.5,1.3,0.8c0.3,0.2,0.6,0.2,0.9,0C51.4,61.8,51.6,61.7,51.9,61.6
				L51.9,61.6z"/>
		</g>
		<linearGradient id="SVGID_7_" gradientUnits="userSpaceOnUse" x1="69.281" y1="60.7028" x2="44.281" y2="105.2028">
			<stop  offset="0" style="stop-color:#F28B6C"/>
			<stop  offset="1" style="stop-color:#C7586B"/>
		</linearGradient>
		<path class="st8" d="M62,76.6l9.7-5.6c0.4-0.2,0.4-0.6,0.1-0.8l-6.1-3.5c-0.4-0.2-1-0.2-1.4,0.1l-9.7,5.6
			c-0.4,0.2-0.4,0.6-0.1,0.8l6.1,3.6C61,76.9,61.6,76.8,62,76.6z"/>
	</g>
</g>
</svg>
