<?xml version="1.0" encoding="utf-8"?>
<!-- Generator: Adobe Illustrator 22.0.0, SVG Export Plug-In . SVG Version: 6.00 Build 0)  -->
<svg version="1.1" id="Слой_1" xmlns="http://www.w3.org/2000/svg" xmlns:xlink="http://www.w3.org/1999/xlink" x="0px" y="0px"
	 viewBox="0 0 100 100" style="enable-background:new 0 0 100 100;" xml:space="preserve">
<style type="text/css">
	.st0{fill:url(#SVGID_1_);}
	.st1{fill:url(#SVGID_2_);}
	.st2{fill:url(#SVGID_3_);}
	.st3{fill:#A9C0D0;}
	.st4{fill:url(#SVGID_4_);}
	.st5{fill:#8FA1AA;}
	.st6{fill:url(#SVGID_5_);}
	.st7{fill:#223C50;}
	.st8{fill:url(#SVGID_6_);}
	.st9{fill:url(#SVGID_7_);}
	.st10{fill:#F6F9F8;}
	.st11{fill:url(#SVGID_8_);}
</style>
<g>
	<g>
		<linearGradient id="SVGID_1_" gradientUnits="userSpaceOnUse" x1="67.0118" y1="10.6004" x2="37.1784" y2="36.2671">
			<stop  offset="0" style="stop-color:#F28B6C"/>
			<stop  offset="1" style="stop-color:#C7586B"/>
		</linearGradient>
		<path class="st0" d="M59.1,29.6c-1.2,6-7.5,10.8-13.6,9.6c-6-1.2-9.6-9.8-8.4-15.8c1.2-6,7.2-8.2,13.3-7S60.4,23.5,59.1,29.6z"/>
		<linearGradient id="SVGID_2_" gradientUnits="userSpaceOnUse" x1="35.4182" y1="36.1295" x2="41.7932" y2="31.2545">
			<stop  offset="0" style="stop-color:#F28B6C"/>
			<stop  offset="1" style="stop-color:#C7586B"/>
		</linearGradient>
		<circle class="st1" cx="46.1" cy="27.9" r="11.4"/>
		<linearGradient id="SVGID_3_" gradientUnits="userSpaceOnUse" x1="50.5359" y1="25.3463" x2="37.7859" y2="32.8463">
			<stop  offset="0" style="stop-color:#F28B6C"/>
			<stop  offset="1" style="stop-color:#C7586B"/>
		</linearGradient>
		<circle class="st2" cx="46.1" cy="27.9" r="9.3"/>
	</g>
	<polygon class="st3" points="34.3,72.2 37.6,78.1 44.1,78 44.1,72.4 	"/>
	<linearGradient id="SVGID_4_" gradientUnits="userSpaceOnUse" x1="18.9696" y1="55.5229" x2="69.2224" y2="55.5229">
		<stop  offset="0" style="stop-color:#DFF5FB"/>
		<stop  offset="0.2502" style="stop-color:#D3EEF6"/>
		<stop  offset="1" style="stop-color:#AED8E6"/>
	</linearGradient>
	<path class="st4" d="M69.2,37.5c0,0-21.9-12-41.1,3C8.9,55.6,25.9,78,25.9,78l6.7,0l0.2-5.8L48,72.5c0.9,2.1,2.2,4.3,3.7,5.5l7,0.1
		l-0.2-7.2l-4.9-1.7l9.2-6.1L69.2,37.5z"/>
	<path class="st3" d="M78,67c0,0-2.1,7.9-5.3,11.3l-7-0.2l-0.1-6.1L78,67z"/>
	<path class="st5" d="M47.9,59.9c0,0,3,12.1,10.7,14.4l-0.1-3.4L58.3,65L47.9,59.9z"/>
	<path class="st5" d="M76.6,68.2c0,0-3.7,6.1-11,6.1l0-3.1L76.6,68.2z"/>
	<g>
		<linearGradient id="SVGID_5_" gradientUnits="userSpaceOnUse" x1="86.5124" y1="36.3502" x2="79.6791" y2="41.8502">
			<stop  offset="0" style="stop-color:#DFF5FB"/>
			<stop  offset="0.2502" style="stop-color:#D3EEF6"/>
			<stop  offset="1" style="stop-color:#AED8E6"/>
		</linearGradient>
		<path class="st6" d="M75,37.9c0,0,3.8-5.6,11-5.8c0,0,1.2,11.5-3.2,15.6L75,37.9z"/>
		<path class="st7" d="M77.6,38.5c2.6-5.7,7.6-6.3,8.3-6.4C78.8,32.3,75,37.9,75,37.9l7.8,9.8C82.3,41.6,77.6,38.5,77.6,38.5z"/>
	</g>
	<linearGradient id="SVGID_6_" gradientUnits="userSpaceOnUse" x1="46.7682" y1="53.6031" x2="83.7755" y2="53.6031">
		<stop  offset="0" style="stop-color:#DFF5FB"/>
		<stop  offset="0.2502" style="stop-color:#D3EEF6"/>
		<stop  offset="1" style="stop-color:#AED8E6"/>
	</linearGradient>
	<circle class="st8" cx="65.3" cy="53.6" r="18.5"/>
	<path class="st5" d="M34.3,72.2c0,0,11.6,0.9,11.6-5.7l2.1,6L34.3,72.2z"/>
	<linearGradient id="SVGID_7_" gradientUnits="userSpaceOnUse" x1="65.1731" y1="31.1342" x2="60.3398" y2="39.6342">
		<stop  offset="0" style="stop-color:#DFF5FB"/>
		<stop  offset="0.2502" style="stop-color:#D3EEF6"/>
		<stop  offset="1" style="stop-color:#AED8E6"/>
	</linearGradient>
	<path class="st9" d="M68,28.4c0,0,1.1,19.8-10.3,16.8C46.3,42.2,62.7,27.3,68,28.4z"/>
	<path class="st7" d="M57.7,45.2c2.2,0.6,3.9,0.3,5.2-0.5C48.1,38.1,68,28.4,68,28.4C62.7,27.3,46.3,42.2,57.7,45.2z"/>
	
		<ellipse transform="matrix(7.264554e-02 -0.9974 0.9974 7.264554e-02 9.9863 127.5541)" class="st5" cx="73.6" cy="58.4" rx="4.8" ry="7"/>
	
		<ellipse transform="matrix(7.264554e-02 -0.9974 0.9974 7.264554e-02 11.4286 127.8292)" class="st3" cx="74.5" cy="57.8" rx="4.8" ry="7"/>
	
		<ellipse transform="matrix(0.9999 -1.606404e-02 1.606404e-02 0.9999 -0.917 1.1825)" class="st7" cx="73.1" cy="57.7" rx="1" ry="1.8"/>
	
		<ellipse transform="matrix(0.9999 -1.606404e-02 1.606404e-02 0.9999 -0.9151 1.2632)" class="st7" cx="78.2" cy="57.6" rx="1" ry="1.8"/>
	<circle class="st7" cx="65.8" cy="49.6" r="1.8"/>
	<circle class="st7" cx="80.3" cy="49.6" r="1.7"/>
	<circle class="st10" cx="66.5" cy="48.8" r="0.6"/>
	<circle class="st10" cx="80.9" cy="48.9" r="0.6"/>
	<g>
		<linearGradient id="SVGID_8_" gradientUnits="userSpaceOnUse" x1="74.2113" y1="13.9156" x2="44.7113" y2="27.5822">
			<stop  offset="0" style="stop-color:#F28B6C"/>
			<stop  offset="1" style="stop-color:#C7586B"/>
		</linearGradient>
		<path class="st11" d="M46.2,29.9l0.7,2.3l-1.3,0.4l-0.7-2.3l-1.1,0.3l-0.3-1l1.1-0.3l-0.3-1.2l-1.1,0.3l-0.3-1l1.1-0.3l-1.2-4.4
			l2.3-0.6c1-0.3,1.9-0.3,2.6,0c0.7,0.3,1.2,0.9,1.4,1.8c0.1,0.5,0.2,0.9,0.1,1.3c-0.1,0.4-0.2,0.7-0.5,1c-0.2,0.3-0.5,0.6-0.9,0.8
			c-0.4,0.2-0.8,0.4-1.3,0.5l-0.9,0.3L46,29l2.9-0.8l0.3,1L46.2,29.9z M44.5,23.5l0.9,3.3l0.9-0.3c0.7-0.2,1.1-0.5,1.4-0.8
			c0.3-0.4,0.3-0.9,0.2-1.4c-0.2-0.5-0.4-0.9-0.8-1.1s-0.9-0.2-1.6,0L44.5,23.5z"/>
	</g>
</g>
</svg>
