<?xml version="1.0" encoding="iso-8859-1"?>
<!-- Generator: Adobe Illustrator 19.0.0, SVG Export Plug-In . SVG Version: 6.00 Build 0)  -->
<svg version="1.1" id="Layer_1" xmlns="http://www.w3.org/2000/svg" xmlns:xlink="http://www.w3.org/1999/xlink" x="0px" y="0px"
	 viewBox="0 0 512 512" style="enable-background:new 0 0 512 512;" xml:space="preserve">
<g>
	<g>
		<path d="M437.018,74.981C388.667,26.63,324.38,0.001,255.999,0.001c-68.38,0-132.667,26.629-181.019,74.98
			C26.629,123.334,0,187.62,0,256v255.999h512V256C512,187.62,485.371,123.334,437.018,74.981z M481.583,481.583H30.417V256
			c0-60.255,23.465-116.904,66.072-159.511c42.606-42.606,99.255-66.071,159.51-66.071s116.904,23.465,159.511,66.071
			c42.607,42.607,66.072,99.257,66.072,159.511V481.583z"/>
	</g>
</g>
<g>
	<g>
		<path d="M255.999,55.247C145.304,55.247,55.247,145.304,55.247,256s90.057,200.753,200.753,200.753S456.752,366.696,456.752,256
			S366.695,55.247,255.999,55.247z M255.999,426.336c-93.924,0-170.336-76.412-170.336-170.336S162.075,85.664,255.999,85.664
			S426.335,162.076,426.335,256S349.923,426.336,255.999,426.336z"/>
	</g>
</g>
<g>
	<g>
		<rect x="240.792" y="374.689" width="30.417" height="33.09"/>
	</g>
</g>
<g>
	<g>
		
			<rect x="189.044" y="114.518" transform="matrix(0.9239 -0.3827 0.3827 0.9239 -34.6081 88.1423)" width="30.417" height="33.09"/>
	</g>
</g>
<g>
	<g>
		
			<rect x="292.539" y="364.382" transform="matrix(0.9239 -0.3827 0.3827 0.9239 -122.3501 146.7693)" width="30.418" height="33.09"/>
	</g>
</g>
<g>
	<g>
		
			<rect x="145.163" y="143.83" transform="matrix(0.7071 -0.7071 0.7071 0.7071 -66.4297 160.372)" width="30.417" height="33.087"/>
	</g>
</g>
<g>
	<g>
		
			<rect x="336.418" y="335.088" transform="matrix(0.7071 -0.7071 0.7071 0.7071 -145.6528 351.6283)" width="30.417" height="33.088"/>
	</g>
</g>
<g>
	<g>
		
			<rect x="115.854" y="187.713" transform="matrix(0.3827 -0.9239 0.9239 0.3827 -107.8026 247.1762)" width="30.418" height="33.089"/>
	</g>
</g>
<g>
	<g>
		
			<rect x="365.72" y="291.197" transform="matrix(0.3827 -0.9239 0.9239 0.3827 -49.1646 541.9031)" width="30.418" height="33.091"/>
	</g>
</g>
<g>
	<g>
		<rect x="104.219" y="240.792" width="33.088" height="30.417"/>
	</g>
</g>
<g>
	<g>
		<path d="M374.689,240.792H297.99v0c-4.509-12.412-14.371-22.274-26.782-26.784v-76.7V104.22h-30.417v33.089v76.7
			c-17.16,6.234-29.452,22.703-29.452,41.992c0,24.626,20.035,44.66,44.66,44.66c19.288,0,35.755-12.292,41.99-29.451h76.7h33.09
			v-30.417H374.689z M255.999,270.243c-7.854,0-14.243-6.39-14.243-14.243c0-7.854,6.39-14.244,14.243-14.244
			c7.854,0,14.243,6.391,14.243,14.244C270.243,263.854,263.853,270.243,255.999,270.243z"/>
	</g>
</g>
<g>
	<g>
		
			<rect x="114.494" y="292.55" transform="matrix(0.9239 -0.3826 0.3826 0.9239 -107.7794 73.5525)" width="33.087" height="30.417"/>
	</g>
</g>
<g>
	<g>
		
			<rect x="364.377" y="189.04" transform="matrix(0.9239 -0.3827 0.3827 0.9239 -49.167 161.3237)" width="33.091" height="30.418"/>
	</g>
</g>
<g>
	<g>
		
			<rect x="143.825" y="336.425" transform="matrix(0.7071 -0.7071 0.7071 0.7071 -201.6714 216.3885)" width="33.087" height="30.417"/>
	</g>
</g>
<g>
	<g>
		
			<rect x="335.071" y="145.162" transform="matrix(0.7071 -0.7071 0.7071 0.7071 -10.4127 295.6013)" width="33.09" height="30.417"/>
	</g>
</g>
<g>
	<g>
		
			<rect x="187.673" y="365.725" transform="matrix(0.3827 -0.9239 0.9239 0.3827 -225.8708 423.8266)" width="33.089" height="30.418"/>
	</g>
</g>
<g>
	<g>
		
			<rect x="291.209" y="115.851" transform="matrix(0.3827 -0.9239 0.9239 0.3827 68.8964 365.2318)" width="33.091" height="30.418"/>
	</g>
</g>
<g>
</g>
<g>
</g>
<g>
</g>
<g>
</g>
<g>
</g>
<g>
</g>
<g>
</g>
<g>
</g>
<g>
</g>
<g>
</g>
<g>
</g>
<g>
</g>
<g>
</g>
<g>
</g>
<g>
</g>
</svg>
