<?xml version="1.0" encoding="iso-8859-1"?>
<!-- Generator: Adobe Illustrator 19.0.0, SVG Export Plug-In . SVG Version: 6.00 Build 0)  -->
<svg version="1.1" id="Layer_1" xmlns="http://www.w3.org/2000/svg" xmlns:xlink="http://www.w3.org/1999/xlink" x="0px" y="0px"
	 viewBox="0 0 512 512" style="enable-background:new 0 0 512 512;" xml:space="preserve">
<g>
	<g>
		<path d="M397.905,103.895c-17.828-31.664-38.596-56.748-61.731-74.555C310.884,9.87,283.947,0,256.113,0
			c-27.832,0-54.776,9.869-80.088,29.335c-23.157,17.808-43.952,42.891-61.808,74.55c-32.81,58.17-52.541,134.301-54.991,211.069
			h393.548C450.33,238.166,430.643,162.039,397.905,103.895z M144.474,284.327h-30.417v-31.286h30.417V284.327z M195.17,284.327
			h-30.417v-31.286h30.417V284.327z M245.865,284.327h-30.417v-31.286h30.417V284.327z M296.56,284.327h-30.417v-31.286h30.417
			V284.327z M347.256,284.327h-30.417v-31.286h30.417V284.327z M367.534,284.327v-31.286h30.417v31.286H367.534z"/>
	</g>
</g>
<g>
	<g>
		<path d="M59.466,345.371c4.26,62.528,36.21,124.076,85.549,163.322l4.156,3.306h213.881l4.156-3.306
			c49.217-39.148,81.085-100.698,85.328-163.322H59.466z M256.001,477.384c-26.852,0-48.699-21.847-48.699-48.699
			s21.847-48.699,48.699-48.699c26.852,0,48.699,21.847,48.699,48.699S282.853,477.384,256.001,477.384z"/>
	</g>
</g>
<g>
	<g>
		<path d="M256.001,410.403c-10.08,0-18.282,8.201-18.282,18.282c0,10.08,8.201,18.282,18.282,18.282
			c10.08,0,18.282-8.201,18.282-18.282C274.283,418.605,266.081,410.403,256.001,410.403z"/>
	</g>
</g>
<g>
</g>
<g>
</g>
<g>
</g>
<g>
</g>
<g>
</g>
<g>
</g>
<g>
</g>
<g>
</g>
<g>
</g>
<g>
</g>
<g>
</g>
<g>
</g>
<g>
</g>
<g>
</g>
<g>
</g>
</svg>
