<?xml version="1.0" encoding="utf-8"?>
<!-- Generator: Adobe Illustrator 22.0.0, SVG Export Plug-In . SVG Version: 6.00 Build 0)  -->
<svg version="1.1" id="Слой_1" xmlns="http://www.w3.org/2000/svg" xmlns:xlink="http://www.w3.org/1999/xlink" x="0px" y="0px"
	 viewBox="0 0 100 100" style="enable-background:new 0 0 100 100;" xml:space="preserve">
<style type="text/css">
	.st0{fill:#A9C0D0;}
	.st1{fill:#223C50;stroke:#223C50;stroke-miterlimit:10;}
	.st2{fill:url(#SVGID_1_);}
	.st3{fill:url(#SVGID_2_);}
	.st4{fill:url(#SVGID_3_);}
	.st5{fill:url(#SVGID_4_);}
	.st6{fill:url(#SVGID_5_);}
	.st7{fill:url(#SVGID_6_);}
	.st8{fill:url(#SVGID_7_);}
	.st9{fill:url(#SVGID_8_);}
	.st10{fill:url(#SVGID_9_);}
	.st11{fill:url(#SVGID_10_);}
</style>
<g>
	<g>
		<path class="st0" d="M48.8,43.7l-1.6,2.1c-0.5,0.7-1.5,0.8-2.1,0.3l-3.4-2.6c-0.7-0.5-0.8-1.5-0.3-2.1l1.6-2.1
			c0.5-0.7,1.5-0.8,2.1-0.3l3.4,2.6C49.2,42.1,49.3,43.1,48.8,43.7z"/>
		<path class="st0" d="M76.3,33l2.3,1.2c0.7,0.4,1,1.3,0.7,2L77.4,40c-0.4,0.7-1.3,1-2,0.7L73,39.5c-0.7-0.4-1-1.3-0.7-2l1.9-3.8
			C74.6,32.9,75.6,32.6,76.3,33z"/>
		<path class="st1" d="M55.5,17.6c-4.6,1-7.4,5.5-6.4,10.1s5.5,7.4,10.1,6.4c4.6-1,7.4-5.5,6.4-10.1S60.1,16.6,55.5,17.6z M59,33.3
			c-4.1,0.9-8.2-1.7-9.1-5.8c-0.9-4.1,1.7-8.2,5.8-9.1s8.2,1.7,9.1,5.8C65.7,28.3,63.2,32.4,59,33.3z"/>
		
			<linearGradient id="SVGID_1_" gradientUnits="userSpaceOnUse" x1="15.268" y1="-136.1673" x2="8.9498" y2="-114.915" gradientTransform="matrix(0.9756 -0.2196 0.2196 0.9756 75.0744 163.6676)">
			<stop  offset="0" style="stop-color:#1570A3"/>
			<stop  offset="1" style="stop-color:#B9D7E4"/>
		</linearGradient>
		<path class="st2" d="M64.2,39.5L57,41.1c-1.2,0.3-2.3-0.5-2.6-1.6l-1.2-5.4c-0.3-1.2,0.5-2.3,1.6-2.6l7.2-1.6
			c1.2-0.3,2.3,0.5,2.6,1.6l1.2,5.4C66.1,38,65.4,39.2,64.2,39.5z"/>
		
			<linearGradient id="SVGID_2_" gradientUnits="userSpaceOnUse" x1="-10.5056" y1="-105.0392" x2="35.1351" y2="-105.0392" gradientTransform="matrix(0.9756 -0.2196 0.2196 0.9756 75.0744 163.6676)">
			<stop  offset="0" style="stop-color:#F28B6C"/>
			<stop  offset="1" style="stop-color:#C7586B"/>
		</linearGradient>
		<circle class="st3" cx="64" cy="58.5" r="22.8"/>
		
			<linearGradient id="SVGID_3_" gradientUnits="userSpaceOnUse" x1="-5.3686" y1="-105.0392" x2="29.998" y2="-105.0392" gradientTransform="matrix(0.9756 -0.2196 0.2196 0.9756 75.0744 163.6676)">
			<stop  offset="0" style="stop-color:#DFF5FB"/>
			<stop  offset="0.2502" style="stop-color:#D3EEF6"/>
			<stop  offset="1" style="stop-color:#AED8E6"/>
		</linearGradient>
		<circle class="st4" cx="64" cy="58.5" r="17.7"/>
		
			<linearGradient id="SVGID_4_" gradientUnits="userSpaceOnUse" x1="11.3071" y1="-116.1202" x2="4.787" y2="-94.189" gradientTransform="matrix(0.9756 -0.2196 0.2196 0.9756 75.0744 163.6676)">
			<stop  offset="0" style="stop-color:#1570A3"/>
			<stop  offset="1" style="stop-color:#B9D7E4"/>
		</linearGradient>
		<polygon class="st5" points="51.3,49.5 66.9,62.7 69,59.6 		"/>
		
			<linearGradient id="SVGID_5_" gradientUnits="userSpaceOnUse" x1="9.4004" y1="-105.0392" x2="15.229" y2="-105.0392" gradientTransform="matrix(0.9756 -0.2196 0.2196 0.9756 75.0744 163.6676)">
			<stop  offset="0" style="stop-color:#F28B6C"/>
			<stop  offset="1" style="stop-color:#C7586B"/>
		</linearGradient>
		<circle class="st6" cx="64" cy="58.5" r="2.9"/>
	</g>
	<g>
		
			<linearGradient id="SVGID_6_" gradientUnits="userSpaceOnUse" x1="-24.8964" y1="-120.6186" x2="31.0184" y2="-63.5183" gradientTransform="matrix(0.9756 -0.2196 0.2196 0.9756 75.0744 163.6676)">
			<stop  offset="0" style="stop-color:#DFF5FB"/>
			<stop  offset="0.2502" style="stop-color:#D3EEF6"/>
			<stop  offset="1" style="stop-color:#AED8E6"/>
		</linearGradient>
		<path class="st7" d="M38.7,54.2l-17,3.8c-0.5,0.1-1-0.2-1.1-0.7l0,0c-0.1-0.5,0.2-1,0.7-1.1l17-3.8c0.5-0.1,1,0.2,1.1,0.7v0
			C39.5,53.6,39.2,54,38.7,54.2z"/>
		
			<linearGradient id="SVGID_7_" gradientUnits="userSpaceOnUse" x1="-38.0078" y1="-107.7794" x2="17.907" y2="-50.6791" gradientTransform="matrix(0.9756 -0.2196 0.2196 0.9756 75.0744 163.6676)">
			<stop  offset="0" style="stop-color:#DFF5FB"/>
			<stop  offset="0.2502" style="stop-color:#D3EEF6"/>
			<stop  offset="1" style="stop-color:#AED8E6"/>
		</linearGradient>
		<path class="st8" d="M44.5,79.7l-17,3.8c-0.5,0.1-1-0.2-1.1-0.7h0c-0.1-0.5,0.2-1,0.7-1.1l17-3.8c0.5-0.1,1,0.2,1.1,0.7l0,0
			C45.3,79.2,45,79.6,44.5,79.7z"/>
		
			<linearGradient id="SVGID_8_" gradientUnits="userSpaceOnUse" x1="-38.134" y1="-107.6558" x2="17.7808" y2="-50.5555" gradientTransform="matrix(0.9756 -0.2196 0.2196 0.9756 75.0744 163.6676)">
			<stop  offset="0" style="stop-color:#DFF5FB"/>
			<stop  offset="0.2502" style="stop-color:#D3EEF6"/>
			<stop  offset="1" style="stop-color:#AED8E6"/>
		</linearGradient>
		<path class="st9" d="M36.6,74.8l-17,3.8c-0.5,0.1-1-0.2-1.1-0.7l0,0c-0.1-0.5,0.2-1,0.7-1.1l17-3.8c0.5-0.1,1,0.2,1.1,0.7l0,0
			C37.3,74.2,37,74.7,36.6,74.8z"/>
		
			<linearGradient id="SVGID_9_" gradientUnits="userSpaceOnUse" x1="-31.5783" y1="-114.0754" x2="24.3365" y2="-56.9751" gradientTransform="matrix(0.9756 -0.2196 0.2196 0.9756 75.0744 163.6676)">
			<stop  offset="0" style="stop-color:#DFF5FB"/>
			<stop  offset="0.2502" style="stop-color:#D3EEF6"/>
			<stop  offset="1" style="stop-color:#AED8E6"/>
		</linearGradient>
		<path class="st10" d="M33.7,62l-17,3.8c-0.5,0.1-1-0.2-1.1-0.7v0c-0.1-0.5,0.2-1,0.7-1.1l17-3.8c0.5-0.1,1,0.2,1.1,0.7v0
			C34.5,61.4,34.2,61.9,33.7,62z"/>
		
			<linearGradient id="SVGID_10_" gradientUnits="userSpaceOnUse" x1="-37.2516" y1="-108.5199" x2="18.6632" y2="-51.4196" gradientTransform="matrix(0.9756 -0.2196 0.2196 0.9756 75.0744 163.6676)">
			<stop  offset="0" style="stop-color:#DFF5FB"/>
			<stop  offset="0.2502" style="stop-color:#D3EEF6"/>
			<stop  offset="1" style="stop-color:#AED8E6"/>
		</linearGradient>
		<path class="st11" d="M30.5,69.4l-17,3.8c-0.5,0.1-1-0.2-1.1-0.7l0,0c-0.1-0.5,0.2-1,0.7-1.1l17-3.8c0.5-0.1,1,0.2,1.1,0.7l0,0
			C31.3,68.9,31,69.3,30.5,69.4z"/>
	</g>
</g>
</svg>
