<?xml version="1.0" encoding="utf-8"?>
<!-- Generator: Adobe Illustrator 22.0.0, SVG Export Plug-In . SVG Version: 6.00 Build 0)  -->
<svg version="1.1" id="Слой_1" xmlns="http://www.w3.org/2000/svg" xmlns:xlink="http://www.w3.org/1999/xlink" x="0px" y="0px"
	 viewBox="0 0 100 100" style="enable-background:new 0 0 100 100;" xml:space="preserve">
<style type="text/css">
	.st0{fill:url(#SVGID_1_);}
	.st1{fill:url(#SVGID_2_);}
	.st2{fill:url(#SVGID_3_);}
	.st3{fill:url(#SVGID_4_);}
	.st4{fill:url(#SVGID_5_);}
	.st5{fill:url(#SVGID_6_);}
	.st6{fill:url(#SVGID_7_);}
	.st7{fill:url(#SVGID_8_);}
	.st8{fill:#C1D6E3;}
	.st9{fill:url(#SVGID_9_);}
</style>
<g>
	<g>
		<g>
			<g>
				<linearGradient id="SVGID_1_" gradientUnits="userSpaceOnUse" x1="23.8306" y1="54.0663" x2="76.1694" y2="54.0663">
					<stop  offset="0" style="stop-color:#DFF5FB"/>
					<stop  offset="0.2502" style="stop-color:#D3EEF6"/>
					<stop  offset="1" style="stop-color:#AED8E6"/>
				</linearGradient>
				<path class="st0" d="M75.5,43.9h-2.3l0,0C72.4,32.6,62.3,23.7,50,23.7s-22.4,8.9-23.2,20.2l0,0h-2.3c0,0-1.4,6.1,0,11.4h1.3
					l0.3,18.2l18.5,11c0,0,1.7-0.3,2.1-1.4l3.4-0.3l3.4,0.3c0.3,1.1,2.1,1.4,2.1,1.4l18.5-11l0.3-18.2h1.3
					C77,50,75.5,43.9,75.5,43.9z"/>
				<linearGradient id="SVGID_2_" gradientUnits="userSpaceOnUse" x1="47.5365" y1="38.9305" x2="33.713" y2="48.5721">
					<stop  offset="0" style="stop-color:#DFF5FB"/>
					<stop  offset="0.2502" style="stop-color:#D3EEF6"/>
					<stop  offset="1" style="stop-color:#AED8E6"/>
				</linearGradient>
				<path class="st1" d="M26.8,44.9l25.7,3.7L65.9,44C39,45.8,32.7,37.9,31.6,32.1c-2.7,3.2-4.4,7.2-4.8,11.5L26.8,44.9z"/>
				<linearGradient id="SVGID_3_" gradientUnits="userSpaceOnUse" x1="50.4803" y1="43.1217" x2="48.7413" y2="82.5388">
					<stop  offset="0" style="stop-color:#1570A3"/>
					<stop  offset="1" style="stop-color:#B9D7E4"/>
				</linearGradient>
				<path class="st2" d="M55.5,43.2L54.4,42l-0.9-18.3c0-0.3-0.2-0.5-0.5-0.5h-5.5c-0.3,0-0.5,0.2-0.5,0.5L45.8,42l-1.3,1.2
					l-17.8,1.5v5.6l17.8,1.4L46.6,83h6.7l2.9-31.3l17.5-1.2v-5.9L55.5,43.2z"/>
			</g>
			<linearGradient id="SVGID_4_" gradientUnits="userSpaceOnUse" x1="33.4594" y1="45.493" x2="35.1984" y2="85.7796">
				<stop  offset="0" style="stop-color:#1570A3"/>
				<stop  offset="1" style="stop-color:#B9D7E4"/>
			</linearGradient>
			<path class="st3" d="M24.5,55.3h1.3l0.3,18.2l18.5,11C38.5,49.3,24.5,55.3,24.5,55.3z"/>
			<linearGradient id="SVGID_5_" gradientUnits="userSpaceOnUse" x1="64.5641" y1="44.1503" x2="66.3031" y2="84.4369">
				<stop  offset="0" style="stop-color:#1570A3"/>
				<stop  offset="1" style="stop-color:#B9D7E4"/>
			</linearGradient>
			<path class="st4" d="M75.6,55.2c-2-0.6-14.2-3-19.8,29l18.1-10.8l0.3-18.2L75.6,55.2C75.6,55.3,75.6,55.3,75.6,55.2z"/>
			<linearGradient id="SVGID_6_" gradientUnits="userSpaceOnUse" x1="65.7634" y1="65.8156" x2="65.9807" y2="82.9881">
				<stop  offset="0" style="stop-color:#1570A3"/>
				<stop  offset="1" style="stop-color:#B9D7E4"/>
			</linearGradient>
			<path class="st5" d="M57.9,83l16-9.5l0,0C71.7,66.1,65.8,52.8,57.9,83z"/>
			<linearGradient id="SVGID_7_" gradientUnits="userSpaceOnUse" x1="34.6115" y1="66.2099" x2="34.8289" y2="83.3824">
				<stop  offset="0" style="stop-color:#1570A3"/>
				<stop  offset="1" style="stop-color:#B9D7E4"/>
			</linearGradient>
			<path class="st6" d="M41.3,82.5l1.6,0.5c-8.1-30.9-14-16.4-16.1-9.2L41.3,82.5z"/>
			<linearGradient id="SVGID_8_" gradientUnits="userSpaceOnUse" x1="24.9993" y1="19.9973" x2="48.1496" y2="32.8224">
				<stop  offset="0" style="stop-color:#1570A3"/>
				<stop  offset="1" style="stop-color:#B9D7E4"/>
			</linearGradient>
			<path class="st7" d="M54.4,42l-0.9-18.2c0-0.3-0.2-0.5-0.5-0.5h-5.4c-0.3,0-0.5,0.2-0.5,0.5L45.8,42l-1.3,1.2l10.9,0.1L54.4,42z"
				/>
		</g>
		<rect x="24.9" y="18.4" class="st8" width="1.3" height="25.5"/>
		<linearGradient id="SVGID_9_" gradientUnits="userSpaceOnUse" x1="23.9435" y1="16.9857" x2="31.9942" y2="16.9857">
			<stop  offset="0" style="stop-color:#F28B6C"/>
			<stop  offset="1" style="stop-color:#C7586B"/>
		</linearGradient>
		<path class="st9" d="M25.1,18.4c-0.1,0-0.3,0-0.3-0.1c-0.5-0.6-2.8-3.1,3.3-2.7h3.2c0.4,0,0.7,0.3,0.7,0.7v0
			c0,0.4-0.3,0.7-0.7,0.7c-1.6,0-4.9,0-5.1,1.4H25.1z"/>
	</g>
</g>
</svg>
