<?xml version="1.0" encoding="utf-8"?>
<!-- Generator: Adobe Illustrator 22.0.0, SVG Export Plug-In . SVG Version: 6.00 Build 0)  -->
<svg version="1.1" id="Слой_1" xmlns="http://www.w3.org/2000/svg" xmlns:xlink="http://www.w3.org/1999/xlink" x="0px" y="0px"
	 viewBox="0 0 100 100" style="enable-background:new 0 0 100 100;" xml:space="preserve">
<style type="text/css">
	.st0{fill:url(#SVGID_1_);}
	.st1{fill:url(#SVGID_2_);}
	.st2{fill:url(#SVGID_3_);}
	.st3{fill:url(#SVGID_4_);}
	.st4{fill:url(#SVGID_5_);}
	.st5{fill:url(#SVGID_6_);}
	.st6{fill:url(#SVGID_7_);}
	.st7{fill:url(#SVGID_8_);}
	.st8{fill:url(#SVGID_9_);}
	.st9{fill:url(#SVGID_10_);}
	.st10{fill:url(#SVGID_11_);}
</style>
<g>
	<g>
		<linearGradient id="SVGID_1_" gradientUnits="userSpaceOnUse" x1="59.6764" y1="25.0266" x2="50.1764" y2="64.0266">
			<stop  offset="0" style="stop-color:#DFF5FB"/>
			<stop  offset="0.2502" style="stop-color:#D3EEF6"/>
			<stop  offset="1" style="stop-color:#AED8E6"/>
		</linearGradient>
		<path class="st0" d="M83.6,62.5c-0.1-0.4-0.2-0.9-0.2-1.3c-0.4-1.8-0.7-3.7-1.1-5.5c-0.9-3.7-2.2-7.3-3.8-10.9
			c-1.2-2.7-2.4-5.3-3.6-8c-0.3-0.7-0.5-1.5-0.7-2.2c-0.1-0.4-0.3-0.8-0.4-1.2c-0.2-0.5-0.6-0.9-1.2-1.1c-2.6-0.9-5.3-1.9-7.9-2.9
			c-1.4-0.5-2.7-0.5-3.9,0.4c-0.6,0.4-1.3,0.8-1.9,1.1c-0.2,0.1-0.4,0.1-0.6,0.2c-1.2,0-2.4,0-3.6,0c-0.4,0-9.3,0-9.6,0
			c-0.7,0-1.3,0-2,0c-0.9,0.1-1.6-0.2-2.4-0.6c-0.5-0.3-1.1-0.6-1.6-0.9c-1-0.6-2.1-0.6-3.2-0.2c-2.8,1-5.6,2-8.4,3.1
			c-0.6,0.2-0.9,0.6-1.1,1.1c-0.2,0.6-0.4,1.2-0.6,1.8c-0.2,1-0.8,1.9-1.2,2.8c-1.3,3-2.7,6-3.9,9c-1.1,2.6-2,5.4-2.7,8.2
			c-0.6,2.3-1.1,4.5-1.3,6.9c0,0.1-0.4,3.7-0.1,6.2c0.1,0.4,0.2,0.7,0.3,1.1c0.4,2.3,1.4,4.4,3.3,5.9c0.8,0.6,1.5,1.2,2.6,1.2
			c0.9,0,1.7-0.3,2.3-0.9c3.3-2.8,6.6-5.7,9.9-8.5c1.4-1.2,3.1-1.8,5-1.8c6.9,0,13.8,0,20.6,0c1.9,0,3.6,0.6,5.1,1.9
			c3.3,2.8,6.5,5.6,9.8,8.5c1.3,1.1,2.8,1.2,4.2,0.2c2-1.4,3.2-3.4,3.8-5.7c0.1-0.5,0.2-1,0.3-1.4C83.5,68.8,84,65,83.6,62.5z"/>
		
			<linearGradient id="SVGID_2_" gradientUnits="userSpaceOnUse" x1="141.1391" y1="-83.3922" x2="142.3449" y2="-90.929" gradientTransform="matrix(0.8321 0.5547 -0.5547 0.8321 -132.9584 38.4651)">
			<stop  offset="0" style="stop-color:#1570A3"/>
			<stop  offset="1" style="stop-color:#B9D7E4"/>
		</linearGradient>
		<circle class="st1" cx="33.4" cy="44.5" r="4.8"/>
		<linearGradient id="SVGID_3_" gradientUnits="userSpaceOnUse" x1="49.6926" y1="33.8598" x2="50.1926" y2="39.5265">
			<stop  offset="0" style="stop-color:#F28B6C"/>
			<stop  offset="1" style="stop-color:#C7586B"/>
		</linearGradient>
		<circle class="st2" cx="50" cy="37.3" r="2.8"/>
		
			<linearGradient id="SVGID_4_" gradientUnits="userSpaceOnUse" x1="154.3132" y1="-79.5555" x2="155.5191" y2="-87.0923" gradientTransform="matrix(0.8321 0.5547 -0.5547 0.8321 -132.9584 38.4651)">
			<stop  offset="0" style="stop-color:#1570A3"/>
			<stop  offset="1" style="stop-color:#B9D7E4"/>
		</linearGradient>
		<circle class="st3" cx="42.3" cy="55" r="4.8"/>
		
			<linearGradient id="SVGID_5_" gradientUnits="userSpaceOnUse" x1="165.8232" y1="-87.2289" x2="167.0291" y2="-94.7657" gradientTransform="matrix(0.8321 0.5547 -0.5547 0.8321 -132.9584 38.4651)">
			<stop  offset="0" style="stop-color:#1570A3"/>
			<stop  offset="1" style="stop-color:#B9D7E4"/>
		</linearGradient>
		<circle class="st4" cx="56.1" cy="55" r="4.8"/>
		<g>
			
				<linearGradient id="SVGID_6_" gradientUnits="userSpaceOnUse" x1="165.655" y1="-106.9067" x2="166.0975" y2="-109.6727" gradientTransform="matrix(0.8321 0.5547 -0.5547 0.8321 -132.9584 38.4651)">
				<stop  offset="0" style="stop-color:#1570A3"/>
				<stop  offset="1" style="stop-color:#B9D7E4"/>
			</linearGradient>
			<circle class="st5" cx="65.2" cy="40.3" r="1.8"/>
			
				<linearGradient id="SVGID_7_" gradientUnits="userSpaceOnUse" x1="169.6052" y1="-100.9813" x2="170.0478" y2="-103.7473" gradientTransform="matrix(0.8321 0.5547 -0.5547 0.8321 -132.9584 38.4651)">
				<stop  offset="0" style="stop-color:#1570A3"/>
				<stop  offset="1" style="stop-color:#B9D7E4"/>
			</linearGradient>
			<circle class="st6" cx="65.2" cy="47.5" r="1.8"/>
			
				<linearGradient id="SVGID_8_" gradientUnits="userSpaceOnUse" x1="170.3918" y1="-105.8581" x2="170.8344" y2="-108.6242" gradientTransform="matrix(0.8321 0.5547 -0.5547 0.8321 -132.9584 38.4651)">
				<stop  offset="0" style="stop-color:#1570A3"/>
				<stop  offset="1" style="stop-color:#B9D7E4"/>
			</linearGradient>
			<circle class="st7" cx="68.5" cy="43.8" r="1.8"/>
			
				<linearGradient id="SVGID_9_" gradientUnits="userSpaceOnUse" x1="164.8957" y1="-102.121" x2="165.3382" y2="-104.8871" gradientTransform="matrix(0.8321 0.5547 -0.5547 0.8321 -132.9584 38.4651)">
				<stop  offset="0" style="stop-color:#1570A3"/>
				<stop  offset="1" style="stop-color:#B9D7E4"/>
			</linearGradient>
			<circle class="st8" cx="61.9" cy="43.9" r="1.8"/>
		</g>
		<linearGradient id="SVGID_10_" gradientUnits="userSpaceOnUse" x1="49.4174" y1="90.5952" x2="50.1674" y2="58.3452">
			<stop  offset="0" style="stop-color:#1570A3"/>
			<stop  offset="1" style="stop-color:#B9D7E4"/>
		</linearGradient>
		<path class="st9" d="M83.4,64.9c-0.1,0.5-0.2,1-0.3,1.4c-0.6,2.4-1.8,4.3-3.8,5.7c-1.4,1-2.9,0.9-4.2-0.2
			c-3.3-2.8-6.5-5.6-9.8-8.5c-1.5-1.3-3.1-1.9-5.1-1.9c-6.9,0-13.8,0-20.6,0c-1.9,0-3.5,0.6-5,1.8c-3.3,2.8-6.6,5.7-9.9,8.5
			c-0.7,0.6-1.4,0.9-2.3,0.9c-1.1,0-1.9-0.6-2.6-1.2c-1.8-1.6-2.8-3.6-3.3-5.9c-0.1-0.4-0.2-0.7-0.3-1.1c0-0.1,0-0.1,0-0.2
			c-0.1,1.3-0.1,2.9,0,4.2c0.1,0.4,0.2,0.7,0.3,1.1c0.4,2.3,1.4,4.4,3.3,5.9c0.8,0.6,1.5,1.2,2.6,1.2c0.9,0,1.7-0.3,2.3-0.9
			c3.3-2.8,6.6-5.7,9.9-8.5c1.4-1.2,3.1-1.8,5-1.8c6.9,0,13.8,0,20.6,0c1.9,0,3.6,0.6,5.1,1.9c3.3,2.8,6.5,5.6,9.8,8.5
			c1.3,1.1,2.8,1.2,4.2,0.2c2-1.4,3.2-3.4,3.8-5.7c0.1-0.5,0.2-1,0.3-1.4c0-0.1,0.5-3.4,0.2-5.9C83.6,64.1,83.4,64.9,83.4,64.9z"/>
		<linearGradient id="SVGID_11_" gradientUnits="userSpaceOnUse" x1="41.903" y1="51.2366" x2="40.9679" y2="42.4059">
			<stop  offset="0" style="stop-color:#1570A3"/>
			<stop  offset="1" style="stop-color:#B9D7E4"/>
		</linearGradient>
		<path class="st10" d="M45.7,53.3h-1.8v-1.8c0-0.2-0.2-0.4-0.4-0.4h-2.4c-0.2,0-0.4,0.2-0.4,0.4v1.8h-1.8c-0.2,0-0.4,0.2-0.4,0.4
			v2.4c0,0.2,0.2,0.4,0.4,0.4h1.8v1.8c0,0.2,0.2,0.4,0.4,0.4h2.4c0.2,0,0.4-0.2,0.4-0.4v-1.8h1.8c0.2,0,0.4-0.2,0.4-0.4v-2.4
			C46.2,53.5,46,53.3,45.7,53.3z"/>
	</g>
</g>
</svg>
